<?xml version="1.0" encoding="utf-8"?>
<!-- Generator: Adobe Illustrator 23.0.2, SVG Export Plug-In . SVG Version: 6.00 Build 0)  -->
<svg version="1.1" id="Layer_1" xmlns="http://www.w3.org/2000/svg" xmlns:xlink="http://www.w3.org/1999/xlink" x="0px" y="0px"
	 viewBox="0 0 512 512" style="enable-background:new 0 0 512 512;" xml:space="preserve">
<style type="text/css">
	.st0{fill:#FFC107;}
</style>
<path class="st0" d="M281.9,163c-0.7,3.6,0.7,7.2,3.6,9.5c1.7,1.3,3.7,2,5.8,2c1.5,0,2.9-0.3,4.2-1l21.3-10.5
	c11.3,5.3,23.7,8,36.2,8c14.9,0,29-3.9,41.2-10.6l25.2,25.2c2.1,2.1,4.8,3.2,7.7,3.2c2.9,0,5.7-1.1,7.7-3.2l28.6-28.6
	c9.5-9.5,9.5-25,0-34.5c-4.6-4.6-10.7-7.1-17.3-7.1c-5.6,0-10.9,1.9-15.2,5.3c4.9-10.7,7.6-22.6,7.6-35.2
	c0-47.2-38.4-85.5-85.5-85.5s-85.5,38.4-85.5,85.5c0,19.7,6.7,38.6,19,53.8L281.9,163z M439.6,133.1c1.8-1.8,4.1-2.8,6.6-2.8
	c2.5,0,4.9,1,6.6,2.8c3.7,3.7,3.7,9.6,0,13.3l-25.7,25.7l-25.7-25.7c-3.7-3.7-3.7-9.6,0-13.3c1.8-1.8,4.1-2.8,6.6-2.8
	c2.5,0,4.9,1,6.6,2.8l7.1,7.1c2.9,2.9,7.7,2.9,10.6,0L439.6,133.1z M282.6,85.5c0-38.9,31.6-70.5,70.5-70.5s70.5,31.6,70.5,70.5
	c0,11.2-2.6,21.8-7.3,31.2c-2.6-0.9-5.4-1.4-8.2-1.4c-6.5,0-12.6,2.5-17.3,7.1c-7,7-8.8,17.1-5.6,25.8c-9.7,5-20.6,7.8-32.2,7.8
	c-11.4,0-22.7-2.8-32.7-8c-1.1-0.6-2.3-0.9-3.5-0.9c-1.1,0-2.3,0.3-3.3,0.8l-14.8,7.3l3.3-16.5c0.5-2.3-0.2-4.7-1.7-6.4
	C288.9,119.4,282.6,102.8,282.6,85.5z"/>
<path class="st0" d="M344.1,142.6c2.4,2.4,5.6,3.7,9,3.7c3.4,0,6.6-1.3,9-3.7l43.8-43.8c13-13,13-34.2,0-47.2
	c-6.3-6.3-14.7-9.8-23.6-9.8s-17.3,3.5-23.6,9.8l-5.6,5.6l-5.6-5.6c-6.3-6.3-14.7-9.8-23.6-9.8s-17.3,3.5-23.6,9.8
	c-13,13-13,34.2,0,47.2L344.1,142.6z M310.9,62.2c3.5-3.5,8.1-5.4,13-5.4c4.9,0,9.5,1.9,13,5.4l10.9,10.9c2.9,2.9,7.7,2.9,10.6,0
	l10.9-10.9c3.5-3.5,8.1-5.4,13-5.4c4.9,0,9.5,1.9,13,5.4c7.2,7.2,7.2,18.8,0,26l-42.2,42.2l-42.2-42.2
	C303.8,81.1,303.8,69.4,310.9,62.2z"/>
<path class="st0" d="M334.2,92.1c4.1,0,7.5-3.4,7.5-7.5v-4.5c0-4.1-3.4-7.5-7.5-7.5c-4.1,0-7.5,3.4-7.5,7.5v4.5
	C326.7,88.7,330.1,92.1,334.2,92.1z"/>
<path class="st0" d="M372.1,92.1c4.1,0,7.5-3.4,7.5-7.5v-4.5c0-4.1-3.4-7.5-7.5-7.5c-4.1,0-7.5,3.4-7.5,7.5v4.5
	C364.6,88.7,367.9,92.1,372.1,92.1z"/>
<path class="st0" d="M336.7,100.5c0,9.1,7.4,16.4,16.4,16.4c9,0,16.4-7.4,16.4-16.4c0-4.1-3.4-7.5-7.5-7.5c-4.1,0-7.5,3.4-7.5,7.5
	c0,0.8-0.6,1.4-1.4,1.4s-1.4-0.6-1.4-1.4c0-4.1-3.4-7.5-7.5-7.5C340.1,93,336.7,96.4,336.7,100.5z"/>
<path class="st0" d="M118.1,346.7c-2.9,1.7-5,4.4-5.8,7.6c-0.9,3.2-0.4,6.6,1.2,9.5l8.4,14.6c2.2,3.9,6.4,6.3,10.9,6.3
	c2.2,0,4.4-0.6,6.2-1.7l22.7-13.1c2.9-1.7,5-4.4,5.8-7.6s0.4-6.6-1.2-9.5l-8.4-14.6c-2.2-3.9-6.4-6.3-10.9-6.3
	c-2.2,0-4.3,0.6-6.2,1.7L118.1,346.7z M152.1,358.1l-18.4,10.6l-6-10.3l18.4-10.6L152.1,358.1z"/>
<path class="st0" d="M124.2,292.3c-2.2,0-4.3,0.6-6.2,1.7l-22.7,13.1c-6,3.5-8,11.1-4.6,17.1l8.4,14.6c2.2,3.9,6.4,6.3,10.9,6.3
	c2.2,0,4.3-0.6,6.2-1.7l22.7-13.1c6-3.4,8-11.1,4.6-17.1l-8.4-14.6C132.8,294.7,128.7,292.3,124.2,292.3z M110.9,329.2l-6-10.3
	l18.4-10.6l6,10.3L110.9,329.2z"/>
<path class="st0" d="M336.7,276.5l17.9-10.4c8.4-4.8,11.3-15.6,6.4-24l-32.2-55.8c-3.1-5.4-9-8.8-15.2-8.8c-3.1,0-6.1,0.8-8.7,2.3
	l-17.9,10.4l-5.2-9c-2.1-3.6-6.7-4.8-10.2-2.7c-3.6,2.1-4.8,6.7-2.7,10.2l96.2,166.6l-15.2,8.8L217.5,135.2l15.2-8.8l17.5,30.3
	c2.1,3.6,6.7,4.8,10.2,2.7c3.6-2.1,4.8-6.7,2.7-10.2l-18.7-32.5c-3.5-6-11.1-8-17.1-4.6l-19.5,11.3c-2.9,1.7-5,4.4-5.8,7.6
	c-0.9,3.2-0.4,6.6,1.2,9.5l8.7,15L152.2,259l-0.5-0.9c-2.2-3.9-6.4-6.3-10.9-6.3c-2.2,0-4.3,0.6-6.2,1.7l-82.8,47.8
	c-2.9,1.7-5,4.4-5.8,7.6c-0.9,3.2-0.4,6.6,1.2,9.5l8,13.8l-27,15.6c-2.9,1.7-5,4.4-5.8,7.6s-0.4,6.6,1.2,9.5l30.2,52.3
	c2.2,3.9,6.4,6.3,10.9,6.3c2.2,0,4.4-0.6,6.2-1.7l27-15.6l8,13.8c0,0,0,0,0,0l49.5,85.8c2.2,3.9,6.4,6.3,10.9,6.3
	c2.2,0,4.3-0.6,6.2-1.7l15-8.7c5.3-3.1,8.1-9.9,6.5-15.8L170,397.4l35.8-20.7c2.9-1.7,5-4.4,5.8-7.6s0.4-6.6-1.2-9.5l-0.5-0.9h25.1
	c4.1,0,7.5-3.4,7.5-7.5c0-4.1-3.4-7.5-7.5-7.5h-33.8L160.9,274l59.7-103.4l100,173.2h-48.7c-4.1,0-7.5,3.4-7.5,7.5
	c0,4.1,3.4,7.5,7.5,7.5h57.3l8.7,15c2.3,4,6.5,6.3,10.9,6.3c2.1,0,4.3-0.5,6.2-1.7l19.5-11.3c2.9-1.7,5-4.4,5.8-7.6s0.4-6.6-1.2-9.5
	L336.7,276.5z M312.4,192.9c0.4-0.2,0.8-0.3,1.2-0.3c0.7,0,1.7,0.3,2.2,1.3l32.2,55.8c0.7,1.2,0.3,2.8-0.9,3.5l-17.9,10.4
	l-34.8-60.2L312.4,192.9z M65.6,407.5l-27.7-48l24.8-14.3l27.7,48L65.6,407.5z M179.4,489l-12.2,7.1l-42-72.8l31.4-18.1L179.4,489z
	 M117.7,410.3L61.5,313l78.5-45.3l56.2,97.3L117.7,410.3z"/>
<path class="st0" d="M430.2,209.5c-34,0-61.6,27.6-61.6,61.6c0,34,27.6,61.6,61.6,61.6c13.6,0,26.5-4.3,37.3-12.5
	c3.3-2.5,3.9-7.2,1.4-10.5c-2.5-3.3-7.2-3.9-10.5-1.4c-8.2,6.2-17.9,9.5-28.2,9.5c-25.7,0-46.6-20.9-46.6-46.6
	c0-25.7,20.9-46.6,46.6-46.6s46.6,20.9,46.6,46.6c0,3.7-0.4,7.5-1.3,11.1c-1,4,1.5,8.1,5.5,9.1c4,1,8.1-1.5,9.1-5.5
	c1.2-4.8,1.7-9.7,1.7-14.6C491.8,237.2,464.2,209.5,430.2,209.5z"/>
<path class="st0" d="M416.1,259.5v-5.1c0-4.1-3.4-7.5-7.5-7.5s-7.5,3.4-7.5,7.5v5.1c0,4.1,3.4,7.5,7.5,7.5S416.1,263.6,416.1,259.5z
	"/>
<path class="st0" d="M459.3,259.5v-5.1c0-4.1-3.4-7.5-7.5-7.5s-7.5,3.4-7.5,7.5v5.1c0,4.1,3.4,7.5,7.5,7.5
	C456,267,459.3,263.6,459.3,259.5z"/>
<path class="st0" d="M430.2,306.5c13.4,0,24.2-10.9,24.2-24.2c0-4.1-3.4-7.5-7.5-7.5c-4.1,0-7.5,3.4-7.5,7.5c0,5.1-4.1,9.2-9.2,9.2
	c-5.1,0-9.2-4.1-9.2-9.2c0-4.1-3.4-7.5-7.5-7.5c-4.1,0-7.5,3.4-7.5,7.5C406,295.7,416.8,306.5,430.2,306.5z"/>
</svg>
