<?xml version="1.0" encoding="UTF-8" standalone="no"?>
<svg
   xmlns:dc="http://purl.org/dc/elements/1.1/"
   xmlns:cc="http://creativecommons.org/ns#"
   xmlns:rdf="http://www.w3.org/1999/02/22-rdf-syntax-ns#"
   xmlns:svg="http://www.w3.org/2000/svg"
   xmlns="http://www.w3.org/2000/svg"
   xmlns:sodipodi="http://sodipodi.sourceforge.net/DTD/sodipodi-0.dtd"
   xmlns:inkscape="http://www.inkscape.org/namespaces/inkscape"
   height="480pt"
   viewBox="0 0 480.096 480"
   width="480pt"
   version="1.1"
   id="svg10"
   sodipodi:docname="paginas_web.svg"
   inkscape:version="0.92.3 (unknown)">
  <metadata
     id="metadata16">
    <rdf:RDF>
      <cc:Work
         rdf:about="">
        <dc:format>image/svg+xml</dc:format>
        <dc:type
           rdf:resource="http://purl.org/dc/dcmitype/StillImage" />
      </cc:Work>
    </rdf:RDF>
  </metadata>
  <defs
     id="defs14" />
  <sodipodi:namedview
     pagecolor="#ffffff"
     bordercolor="#666666"
     borderopacity="1"
     objecttolerance="10"
     gridtolerance="10"
     guidetolerance="10"
     inkscape:pageopacity="0"
     inkscape:pageshadow="2"
     inkscape:window-width="1855"
     inkscape:window-height="1056"
     id="namedview12"
     showgrid="false"
     inkscape:zoom="0.36875"
     inkscape:cx="-88.135593"
     inkscape:cy="320"
     inkscape:window-x="65"
     inkscape:window-y="24"
     inkscape:window-maximized="1"
     inkscape:current-layer="svg10" />
  <path
     d="m 240.77194,3.1975192 h -0.0961 C 110.24147,3.1975192 4.5009,108.93776 4.5009,239.37174 c 0,130.43784 105.74057,236.17423 236.17494,236.17423 h 0.0961 c 130.43437,0 236.17495,-105.73639 236.17495,-236.17423 0,-130.43398 -105.74058,-236.1742208 -236.17495,-236.1742208 z M 443.45418,152.77453 H 338.97828 C 332.88555,130.9138 324.39417,109.79114 313.65406,89.794736 h 88.84237 c 17.14421,18.504914 30.99796,39.804424 40.95775,62.979794 z M 240.69891,21.510247 c 17.21339,15.53353 32.38948,33.188937 45.15539,52.539541 H 195.59733 C 208.34786,54.699184 223.50088,37.043777 240.69891,21.510247 Z M 176.73486,74.049788 H 95.199921 C 129.86889,43.390191 173.34445,24.470113 219.41087,19.999563 203.11619,36.278823 188.79346,54.422417 176.73486,74.049788 Z m 85.29052,-54.065601 c 46.10485,4.455174 89.61886,23.379095 124.31474,54.065601 H 304.7283 C 292.66201,54.41473 278.3316,36.267293 262.02538,19.984187 Z m 33.58497,69.810549 c 11.49737,19.854174 20.61534,40.992214 27.16934,62.979794 H 158.7565 c 6.51942,-21.98374 15.61815,-43.12562 27.09632,-62.979794 z m -216.56289,0 h 88.76933 C 157.0959,109.79114 148.62374,130.9138 142.55408,152.77453 H 38.085868 C 48.045655,129.59916 61.899407,108.29965 79.04746,89.794736 Z M 32.085395,168.51948 H 449.45464 c 15.66044,45.93942 15.66044,95.76896 0,141.70453 H 32.085395 c -15.660427,-45.93557 -15.660427,-95.76511 0,-141.70453 z M 240.70659,457.2371 c -17.19802,-15.53354 -32.35873,-33.18895 -45.10926,-52.5434 h 90.25697 c -12.76591,19.35445 -27.942,37.00986 -45.15539,52.5434 z m 64.02171,-52.5434 h 81.61182 c -34.7151,30.70189 -78.25601,49.6258 -124.38393,54.06946 16.32929,-16.28312 30.6866,-34.43056 42.77211,-54.06946 z m -85.31743,54.05408 C 173.34445,454.27339 129.86889,435.35714 95.199921,404.6937 h 81.534939 c 12.0586,19.63122 26.38133,37.77096 42.67601,54.05408 z m -33.55805,-69.79903 c -11.47817,-19.85416 -20.5769,-40.99222 -27.09632,-62.97979 h 164.02319 c -6.554,21.98757 -15.67197,43.12563 -27.16934,62.97979 z M 38.085868,325.96896 H 142.55408 c 6.06966,21.86073 14.54182,42.9834 25.26271,62.97979 H 79.04746 C 61.899407,370.44767 48.045655,349.14433 38.085868,325.96896 Z m 364.410562,62.97979 h -88.84237 c 10.74011,-19.99254 19.23149,-41.11522 25.32422,-62.97979 h 104.4759 c -9.95979,23.17537 -23.81354,44.47871 -40.95775,62.97979 z m 0,0"
     id="path2"
     style="fill:#ffc107;fill-opacity:1;stroke-width:0.98406076"
     inkscape:connector-curvature="0" />
  <path
     d="m 67.849908,280.80602 c 0.926402,3.3904 3.982377,5.75829 7.495788,5.80057 h 0.103786 c 3.47497,0 6.542477,-2.27948 7.541915,-5.61221 l 16.07558,-53.58894 16.075583,53.58894 c 0.99559,3.33273 4.0631,5.61221 7.54191,5.61221 h 0.0999 c 3.5134,-0.0423 6.57322,-2.41017 7.49578,-5.80057 l 23.6175,-86.59721 -15.19531,-4.13997 -16.3831,60.06606 -15.745,-52.38193 c -0.99559,-3.33274 -4.0631,-5.61606 -7.541909,-5.61606 -3.47497,0 -6.542477,2.28332 -7.541914,5.61606 L 75.74547,250.1349 59.366215,190.06884 44.17091,194.20881 Z m 0,0"
     id="path4"
     style="fill:#ffc107;fill-opacity:1;stroke-width:0.98406076"
     inkscape:connector-curvature="0" />
  <path
     d="m 217.05066,286.60659 h 0.10379 c 3.47497,0 6.54248,-2.27948 7.54191,-5.61221 l 16.07558,-53.58894 16.07558,53.58894 c 0.99559,3.33273 4.0631,5.61221 7.54192,5.61221 h 0.0999 c 3.51341,-0.0423 6.57323,-2.41017 7.49579,-5.80057 l 23.61749,-86.59721 -15.19531,-4.13997 -16.38309,60.06606 -15.745,-52.38193 c -0.9956,-3.33274 -4.0631,-5.61606 -7.54191,-5.61606 -3.47497,0 -6.54247,2.28332 -7.54192,5.61606 l -15.74499,52.38193 -16.37926,-60.06606 -15.19531,4.13997 23.6175,86.59721 c 0.93025,3.41346 4.02082,5.78519 7.55729,5.80057 z m 0,0"
     id="path6"
     style="fill:#ffc107;fill-opacity:1;stroke-width:0.98406076"
     inkscape:connector-curvature="0" />
  <path
     d="m 358.75563,286.60659 h 0.10378 c 3.47497,0 6.54248,-2.27948 7.54192,-5.61221 l 16.07558,-53.58894 16.07558,53.58894 c 0.99559,3.33273 4.06311,5.61221 7.54191,5.61221 h 0.0999 c 3.51341,-0.0423 6.57323,-2.41017 7.49578,-5.80057 l 23.61749,-86.59721 -15.1953,-4.13997 -16.3831,60.06606 -15.74499,-52.38193 c -0.99559,-3.33274 -4.0631,-5.61606 -7.54191,-5.61606 -3.47498,0 -6.54248,2.28332 -7.54192,5.61606 l -15.745,52.38193 -16.37926,-60.06606 -15.1953,4.13997 23.6175,86.59721 c 0.93024,3.41346 4.02082,5.78519 7.55729,5.80057 z m 0,0"
     id="path8"
     style="fill:#ffc107;fill-opacity:1;stroke-width:0.98406076"
     inkscape:connector-curvature="0" />
</svg>
