<?xml version="1.0" encoding="utf-8"?>
<!-- Generator: Adobe Illustrator 23.0.2, SVG Export Plug-In . SVG Version: 6.00 Build 0)  -->
<svg version="1.1"
	 id="Capa_1" inkscape:version="0.92.3 (unknown)" sodipodi:docname="community_manager.svg" xmlns:cc="http://creativecommons.org/ns#" xmlns:dc="http://purl.org/dc/elements/1.1/" xmlns:inkscape="http://www.inkscape.org/namespaces/inkscape" xmlns:rdf="http://www.w3.org/1999/02/22-rdf-syntax-ns#" xmlns:sodipodi="http://sodipodi.sourceforge.net/DTD/sodipodi-0.dtd" xmlns:svg="http://www.w3.org/2000/svg"
	 xmlns="http://www.w3.org/2000/svg" xmlns:xlink="http://www.w3.org/1999/xlink" x="0px" y="0px" viewBox="0 0 512 512"
	 style="enable-background:new 0 0 512 512;" xml:space="preserve">
<style type="text/css">
	.st0{fill:#FFC107;}
</style>
<sodipodi:namedview  bordercolor="#666666" borderopacity="1" gridtolerance="10" guidetolerance="10" id="namedview45" inkscape:current-layer="Capa_1" inkscape:cx="256" inkscape:cy="256" inkscape:pageopacity="0" inkscape:pageshadow="2" inkscape:window-height="1056" inkscape:window-maximized="1" inkscape:window-width="1855" inkscape:window-x="65" inkscape:window-y="24" inkscape:zoom="0.4609375" objecttolerance="10" pagecolor="#ffffff" showgrid="false">
	</sodipodi:namedview>
<g id="g12" transform="translate(0 -1)">
	<g id="g10">
		<g id="g8">
			<path id="path2" class="st0" d="M506.7,236c-5.7-7.9-15.3-12.1-25-11.1c-9.7,1.1-18.1,7.3-22,16.3l-7.5,17.5
				c-5.5-88.1-56.4-132.3-79.2-147.8c18.7-18.1,24.6-45.8,14.8-70C378,16.8,354.5,1,328.4,1c-26.1,0-49.5,15.9-59.3,40.1
				s-3.8,51.9,15,70C274,118,264.6,126,256.3,135c-8.5-9-17.9-17.1-28.2-24.1c18.7-18.2,24.5-45.9,14.7-70.1
				C232.9,16.7,209.4,0.9,183.3,1c-26.1,0.1-49.5,16-59.2,40.2c-9.7,24.2-3.7,51.9,15.1,70c-23.1,15.7-73.8,60.2-78.9,148.7l-8-18.6
				c-3.9-9-12.2-15.2-22-16.3c-9.7-1.1-19.3,3.1-25,11.1s-6.8,18.3-2.7,27.2L36,336.8c4.5,10,10.8,19,18.5,26.7l52.6,52.6
				c-3,3.1-4.6,7.3-4.6,11.6v68.3c0,9.4,7.6,17.1,17.1,17.1h93.8c9.4,0,17.1-7.6,17.1-17.1v-59.7h51.2v59.7
				c0,9.4,7.6,17.1,17.1,17.1h93.8c9.4,0,17.1-7.6,17.1-17.1v-68.3c0-4.3-1.7-8.5-4.6-11.6l52.6-52.6c7.7-7.7,14-16.8,18.5-26.7
				l33.4-73.6C513.5,254.3,512.5,243.9,506.7,236z M281.6,65.1c0-25.9,21-46.9,46.9-46.9c25.9,0,46.9,21,46.9,46.9
				s-21,46.9-46.9,46.9C302.6,112,281.6,91,281.6,65.1z M299.1,121.8c9.1,4.8,19.2,7.2,29.5,7.2c10.4,0,20.6-2.5,29.8-7.4
				c16.3,9.3,80.2,53,77.3,159.4c-10.5-4.6-22.5-4.4-32.9,0.6c-0.3-33-6.9-65.7-19.4-96.3c-1.2-2.8-3.8-4.8-6.8-5.1
				c-3-0.4-6,0.9-7.8,3.4c-1.8,2.4-2.2,5.7-1,8.5c0.2,0.6,23.3,55.3,16.9,102.8c-11.6,9.7-24.7,17.5-38.7,23.2
				c-1.7,0.6-3.3,1.4-4.9,2.1c-3.3-49.3-23.9-76.1-36.4-88.1c11.1-15.4,14.3-35.2,8.4-53.3c-5.9-18.1-20-32.3-38.1-38.2
				C282.1,133.5,290.3,127.2,299.1,121.8z M256,154.7c23.6,0,42.7,19.1,42.7,42.7S279.6,240,256,240s-42.7-19.1-42.7-42.7
				C213.4,173.8,232.5,154.7,256,154.7z M136.6,65.1c0-25.9,21-46.9,46.9-46.9s46.9,21,46.9,46.9s-21,46.9-46.9,46.9
				C157.6,112,136.6,91,136.6,65.1z M154,121.8c18.6,9.7,40.7,9.7,59.2-0.1c8.8,5.4,17,11.7,24.4,18.8c-18.2,5.8-32.5,20-38.4,38.1
				c-6,18.1-2.9,38,8.3,53.5c-12.6,12-33.1,38.8-36.4,88.1c-1.6-0.7-3.3-1.5-5-2.1c-14-5.6-27.1-13.5-38.7-23.2
				c-6.4-47.3,16.7-102.2,16.9-102.8c1.8-4.3-0.2-9.3-4.5-11.2c-4.3-1.9-9.3,0.1-11.2,4.5c-12.5,30.6-19.1,63.2-19.4,96.3
				c-10.2-4.9-22-5.1-32.3-0.7C74.1,175.2,137.3,131.5,154,121.8z M66.5,351.4c-6.3-6.3-11.4-13.6-15.1-21.7l-33.4-73.6
				c-1.5-3.1-1.2-6.8,0.7-9.7l0,0c1.8-2.9,5.1-4.7,8.5-4.6c4.1,0,7.7,2.4,9.3,6.1l19.1,44.5c5.1,11.9,12.4,22.7,21.5,31.8l39,39
				c2.2,2.2,5.3,3,8.2,2.2c2.9-0.8,5.2-3.1,6-6c0.8-2.9-0.1-6.1-2.2-8.2l-39-39c-3.9-3.9-7.4-8.2-10.5-12.8
				c8.2-6.3,19.7-6.1,27.6,0.5c2.4,2.1,4.8,4,7.2,5.9c0.4,0.3,0.8,0.7,1.2,0.9c13.7,11.7,29.3,21,46,27.6c8.2,3,15.3,8.3,20.5,15.2
				c9.9,13,15.2,28.9,15,45.2v15.9h-70.5L66.5,351.4z M119.5,495.9v-68.3h93.8l0,68.3H119.5z M284,419.2H228
				c-3-5.3-8.6-8.5-14.7-8.5v-15.9c0-2.7-0.1-5.4-0.3-8c0.2-0.5,0.3-1.1,0.3-1.7c0-0.5,0.3-51.5,23.7-79.9c1.9-2.4,2.5-5.6,1.4-8.4
				c-1.1-2.9-3.6-4.9-6.6-5.4c-3-0.5-6.1,0.6-8,3c-11.8,15.7-19.8,33.9-23.2,53.3c-1.8-3-3.8-5.9-6-8.7c-2.1-2.6-4.4-5.1-6.8-7.4
				c0.6-50.7,21-76.9,31.6-87c21.5,16.8,51.7,16.8,73.1,0c10.6,10.1,31,36.3,31.6,87c-2.4,2.3-4.7,4.8-6.8,7.4
				c-2.2,2.8-4.2,5.7-6,8.7c-3.5-19.3-11.4-37.6-23.2-53.3c-3-3.6-8.4-4.1-12-1.2c-3.6,3-4.2,8.4-1.2,12
				c23.3,28.3,23.7,79.4,23.7,79.9c0.1,0.6,0.2,1.1,0.3,1.7c-0.2,2.7-0.3,5.3-0.3,8v15.9C292.6,410.6,287,413.9,284,419.2z
				 M392.5,495.9h-93.8v-68.3h93.8V495.9z M493.9,256.2l-33.4,73.6c-3.7,8.1-8.8,15.4-15.1,21.7l-59.2,59.2h-70.5v-15.9
				c-0.3-16.3,5-32.3,15-45.2c5.2-7,12.3-12.2,20.5-15.2c16.8-6.6,32.3-15.9,46-27.6c0.4-0.3,0.8-0.6,1.2-0.9
				c2.4-1.9,4.8-3.9,7.2-5.9c8-6.6,19.5-6.8,27.7-0.5c-3.1,4.6-6.6,8.9-10.6,12.9l-39,39c-2.2,2.2-3,5.3-2.2,8.2
				c0.8,2.9,3.1,5.2,6,6c2.9,0.8,6.1-0.1,8.2-2.2l39-39c9.1-9.1,16.4-19.9,21.5-31.8l19.1-44.5c1.6-3.7,5.3-6.1,9.3-6.1
				c3.4,0,6.7,1.8,8.5,4.7C495.1,249.4,495.4,253,493.9,256.2z"/>
			<path id="path4" class="st0" d="M196.3,453.3h-8.5c-4.7,0-8.5,3.8-8.5,8.5s3.8,8.5,8.5,8.5h8.5c4.7,0,8.5-3.8,8.5-8.5
				S201,453.3,196.3,453.3z"/>
			<path id="path6" class="st0" d="M315.7,470.3h8.5c4.7,0,8.5-3.8,8.5-8.5s-3.8-8.5-8.5-8.5h-8.5c-4.7,0-8.5,3.8-8.5,8.5
				S311,470.3,315.7,470.3z"/>
		</g>
		<g id="g26_1_">
			<g id="g24_1_">
				<g id="g22_1_">
					<path id="path2_1_" class="st0" d="M753,421.3h32c4.4,0,8-3.6,8-8s-3.6-8-8-8h-32c-4.4,0-8,3.6-8,8S748.6,421.3,753,421.3z"/>
					<path id="path4_1_" class="st0" d="M633,93.3c4.4,0,8-3.6,8-8v-48h256v64c0,4.4,3.6,8,8,8s8-3.6,8-8v-96c0-14.4-18.5-32-40-32
						H665c-22.1,0-40,17.9-40,40v72C625,89.7,628.6,93.3,633,93.3z M641,13.3c0-13.3,10.7-24,24-24h208c13.9,0,24,11.2,24,16v16H641
						V13.3L641,13.3z"/>
					<path id="path6_1_" class="st0" d="M905,325.3c-4.4,0-8,3.6-8,8v40H641v-32c0-4.4-3.6-8-8-8s-8,3.6-8,8v72
						c0,22.1,17.9,40,40,40h208c22.1,0,40-17.9,40-40v-80C913,328.9,909.4,325.3,905,325.3z M897,413.3c0,13.3-10.7,24-24,24H665
						c-13.3,0-24-10.7-24-24v-24h256V413.3z"/>
					<path id="path8" class="st0" d="M753-2.7h-16c-4.4,0-8,3.6-8,8s3.6,8,8,8h16c4.4,0,8-3.6,8-8S757.4-2.7,753-2.7z"/>
					<path id="path10" class="st0" d="M801-2.7h-16c-4.4,0-8,3.6-8,8s3.6,8,8,8h16c4.4,0,8-3.6,8-8S805.4-2.7,801-2.7z"/>
					<path id="path12" class="st0" d="M1007.2,128.2L1007.2,128.2c-1.5-1.8-3.8-2.9-6.2-2.9H791l-4.1-27.5
						c-1.8-11.7-11.9-20.4-23.7-20.5H729v16h34.2c4,0,7.3,2.9,7.9,6.8l28,188.7c1.8,11.7,11.9,20.4,23.7,20.5h19.7
						c4.3,12.4,17.9,19,30.4,14.7c6.9-2.4,12.3-7.8,14.7-14.7h34.9c4.4,12.5,18.1,19,30.6,14.6s19-18.1,14.6-30.6
						c-4.4-12.5-18.1-19-30.6-14.6c-6.8,2.4-12.2,7.8-14.6,14.6h-34.9c-4.3-12.4-17.9-19-30.4-14.7c-6.9,2.4-12.3,7.8-14.7,14.7
						h-19.7c-4,0-7.3-2.9-7.9-6.8l-2.5-17.2H977c3.8,0,7.1-2.7,7.9-6.5l24-128C1009.3,132.4,1008.7,130,1007.2,128.2z M945,293.3
						c4.4,0,8,3.6,8,8s-3.6,8-8,8s-8-3.6-8-8S940.6,293.3,945,293.3z M865,293.3c4.4,0,8,3.6,8,8s-3.6,8-8,8s-8-3.6-8-8
						S860.6,293.3,865,293.3z M970.4,253.3H810l-16.6-112h198L970.4,253.3z"/>
					<path id="path14" class="st0" d="M737,213.3c0-57.4-46.6-104-104-104c-57.4,0-104,46.6-104,104s46.6,104,104,104
						C690.4,317.2,736.9,270.7,737,213.3z M545,213.3c0-48.6,39.4-88,88-88s88,39.4,88,88s-39.4,88-88,88
						C584.4,301.2,545.1,261.9,545,213.3z"/>
					<path id="path16" class="st0" d="M641,277.3v-9.1c17.1-4.4,27.4-21.8,23-38.9c-3.6-14.1-16.4-24-31-24c-8.8,0-16-7.2-16-16
						s7.2-16,16-16c8.8,0,16,7.2,16,16c0,4.4,3.6,8,8,8c4.4,0,8-3.6,8-8c-0.1-14.5-9.9-27.2-24-30.9v-9.1c0-4.4-3.6-8-8-8
						c-4.4,0-8,3.6-8,8v9.1c-17.1,4.4-27.4,21.8-23,38.9c3.6,14.1,16.4,24,31,24c8.8,0,16,7.2,16,16s-7.2,16-16,16
						c-8.8,0-16-7.2-16-16c0-4.4-3.6-8-8-8c-4.4,0-8,3.6-8,8c0.1,14.5,9.9,27.2,24,30.9v9.1c0,4.4,3.6,8,8,8
						C637.4,285.3,641,281.7,641,277.3z"/>
					<path id="path18" class="st0" d="M817,165.3h112c4.4,0,8-3.6,8-8s-3.6-8-8-8H817c-4.4,0-8,3.6-8,8S812.6,165.3,817,165.3z"/>
					<path id="path20" class="st0" d="M953,165.3h16c4.4,0,8-3.6,8-8s-3.6-8-8-8h-16c-4.4,0-8,3.6-8,8S948.6,165.3,953,165.3z"/>
				</g>
			</g>
		</g>
	</g>
</g>
<g id="g14">
</g>
<g id="g16">
</g>
<g id="g18">
</g>
<g id="g20">
</g>
<g id="g22">
</g>
<g id="g24">
</g>
<g id="g26">
</g>
<g id="g28">
</g>
<g id="g30">
</g>
<g id="g32">
</g>
<g id="g34">
</g>
<g id="g36">
</g>
<g id="g38">
</g>
<g id="g40">
</g>
<g id="g42">
</g>
</svg>
