<?xml version="1.0" encoding="utf-8"?>
<!-- Generator: Adobe Illustrator 24.0.1, SVG Export Plug-In . SVG Version: 6.00 Build 0)  -->
<svg version="1.1" id="Layer_1" xmlns="http://www.w3.org/2000/svg" xmlns:xlink="http://www.w3.org/1999/xlink" x="0px" y="0px"
	 viewBox="0 0 126 128" style="enable-background:new 0 0 126 128;" xml:space="preserve">
<style type="text/css">
	.st0{fill:#8DBF24;}
</style>
<g>
	<path class="st0" d="M39.14,104.1c-4.46,0-8.27,0.18-12.05-0.03C12.3,103.25,0.45,91.93-0.02,77.17
		C-0.55,60.7-0.57,44.19-0.08,27.72C0.38,12.35,12.13,0.46,27.44,0.16C51.09-0.3,74.75-0.28,98.39,0.19
		c15.6,0.31,27.24,12.21,27.68,27.89c0.45,15.98,0.45,31.98,0.01,47.96c-0.45,16.16-12.34,27.52-28.57,28.07
		c-6.16,0.21-12.34-0.18-18.48,0.25c-2.78,0.19-5.86,1.16-8.11,2.75c-8.57,6.04-16.82,12.54-25.29,18.72
		c-1.33,0.97-3.22,1.16-4.85,1.71c-0.55-1.66-1.51-3.3-1.57-4.98C39.02,116.74,39.14,110.92,39.14,104.1z M44.57,120
		c3.62-2.69,6.24-4.2,8.32-6.26c12.05-11.94,26.05-16.61,43.25-15.13c14.82,1.28,24.7-9.62,24.82-24.53
		c0.12-14.66,0.11-29.33,0-43.99c-0.11-14.3-9.06-24.29-23.41-24.63C74.57,4.92,51.55,4.93,28.57,5.39C14.47,5.67,5.12,15.96,5,30
		C4.88,44.83,4.86,59.67,5.01,74.49c0.14,14.13,10.18,24.12,24.31,24.47c3.33,0.08,6.68,0.18,10-0.02c3.93-0.24,5.42,1.45,5.29,5.29
		C44.44,109.01,44.57,113.81,44.57,120z"/>
	<path class="st0" d="M102.49,56.59c-2.04,0-3.44,0-5,0c-2.25-21.37-14.11-33.06-35.45-35.72c-0.1-1.35-0.21-2.77-0.43-5.69
		c6.03,1.55,11.71,2.13,16.6,4.42C93.5,26.73,101.59,39.02,102.49,56.59z"/>
	<path class="st0" d="M62.12,27.02c14.97-0.92,27.59,11.5,28.32,27.71c-3.16,1.32-4.92,1.1-5.57-3.1
		C83.29,41.32,75.82,34.06,65.5,32.1C61.93,31.42,61.93,31.42,62.12,27.02z"/>
	<path class="st0" d="M62.29,37.16c9.76,0.89,15.16,6.3,16.36,16.3c-2.92,0.93-4.62,1.12-6.08-2.82c-1.11-3.01-4.28-6.07-7.29-7.36
		C61.99,41.86,61.2,40.54,62.29,37.16z"/>
	<path class="st0" d="M28.6,79.27c-5.73-3.47-7.71-6.34-6.21-8.99c-4.25-4.45-5.31-8.38-2.79-10.53c-1.62-3.08-1.7-6.3-0.59-9.58
		c0.91-2.69,1.69-2.9,3.61-0.85c3.89,4.17,8.54,7.01,13.98,8.51c0.7,0.19,1.42,0.33,2.14,0.46c0.25,0.05,0.52,0.01,0.9,0.01
		c0.05-0.48,0.11-0.92,0.13-1.37c0.43-8.74,9.74-13.88,16.95-9.14c2.16,1.42,3.74,1.06,5.6-0.01c0.35-0.2,0.67-0.49,1.04-0.59
		c0.59-0.16,1.22-0.2,1.83-0.3c0.1,0.68,0.32,1.38,0.25,2.05c-0.07,0.63-0.47,1.22-0.65,1.66c0.79,0.32,1.5,0.61,2.21,0.9
		c-0.37,0.73-0.6,1.61-1.13,2.18c-2.11,2.23-3.81,4.29-4.07,7.86c-0.97,13.26-10.66,24.13-23.34,26.56
		c-7.28,1.39-14.25-0.02-20.74-3.67c-0.63-0.35-0.95-1.27-1.42-1.93c0.76-0.25,1.52-0.74,2.27-0.72
		C22.49,81.87,26.3,80.97,28.6,79.27z M22.74,84.39c5.22,1.56,10.63,2.69,16.24,1.29c11.47-2.87,19.7-12.81,20.71-24.88
		c0.17-2.03-0.29-4.28,1.51-5.59c-0.67-0.59-1.85-1.25-1.77-1.65c0.17-0.85,0.99-1.57,1.58-2.39c-2.71,0.27-2.71,0.27-5.17-1.28
		c-3.31-2.08-6.65-2.2-9.9,0.06c-2.8,1.95-4.14,4.7-3.76,8.17c0.29,2.66,0.12,2.97-2.55,2.65c-6.17-0.75-11.56-3.33-16.22-7.49
		c-0.71-0.63-1.41-1.27-2.23-2c-0.98,2.8-0.82,5.17,0.53,7.35c0.66,1.06,1.7,1.88,2.46,2.89c0.31,0.42,0.61,1.19,0.43,1.56
		c-0.18,0.36-0.96,0.56-1.48,0.57c-0.69,0.02-1.39-0.2-2.4-0.38c0.35,0.94,0.54,1.63,0.85,2.26c1.16,2.4,3.22,3.66,5.56,4.62
		c0.48,0.2,0.97,0.91,1.03,1.43c0.04,0.3-0.73,0.81-1.22,1.03c-0.61,0.28-1.31,0.35-2.16,0.56c1.63,2.39,3.69,3.55,6.15,4.2
		c0.73,0.19,1.35,0.84,2.02,1.27c-0.53,0.63-0.93,1.52-1.6,1.85C28.55,81.87,25.69,83.08,22.74,84.39z"/>
</g>
</svg>
