<?xml version="1.0" encoding="utf-8"?>
<!-- Generator: Adobe Illustrator 24.0.1, SVG Export Plug-In . SVG Version: 6.00 Build 0)  -->
<svg version="1.1"
	 id="Capa_1" inkscape:version="0.92.3 (unknown)" sodipodi:docname="aplicaciones_moviles.svg" xmlns:cc="http://creativecommons.org/ns#" xmlns:dc="http://purl.org/dc/elements/1.1/" xmlns:inkscape="http://www.inkscape.org/namespaces/inkscape" xmlns:rdf="http://www.w3.org/1999/02/22-rdf-syntax-ns#" xmlns:sodipodi="http://sodipodi.sourceforge.net/DTD/sodipodi-0.dtd" xmlns:svg="http://www.w3.org/2000/svg"
	 xmlns="http://www.w3.org/2000/svg" xmlns:xlink="http://www.w3.org/1999/xlink" x="0px" y="0px" viewBox="0 0 480 480"
	 style="enable-background:new 0 0 480 480;" xml:space="preserve">
<style type="text/css">
	.st0{fill:#8DBF24;}
</style>
<sodipodi:namedview  bordercolor="#666666" borderopacity="1" gridtolerance="10" guidetolerance="10" id="namedview59" inkscape:current-layer="Capa_1" inkscape:cx="240" inkscape:cy="240" inkscape:pageopacity="0" inkscape:pageshadow="2" inkscape:window-height="1056" inkscape:window-maximized="1" inkscape:window-width="1855" inkscape:window-x="65" inkscape:window-y="24" inkscape:zoom="0.49166667" objecttolerance="10" pagecolor="#ffffff" showgrid="false">
	</sodipodi:namedview>
<g id="g26">
	<g id="g24">
		<g id="g22">
			<path id="path2" class="st0" d="M224,448h32c4.42,0,8-3.58,8-8s-3.58-8-8-8h-32c-4.42,0-8,3.58-8,8S219.58,448,224,448z"/>
			<path id="path4" class="st0" d="M104,120c4.42,0,8-3.58,8-8V64h256v64c0,4.42,3.58,8,8,8s8-3.58,8-8V32c0-14.4-18.46-32-40-32
				H136c-22.08,0.03-39.97,17.92-40,40v72C96,116.42,99.58,120,104,120z M112,40c0-13.26,10.75-24,24-24h208c13.86,0,24,11.2,24,16
				v16H112L112,40L112,40z"/>
			<path id="path6" class="st0" d="M376,352c-4.42,0-8,3.58-8,8v40H112v-32c0-4.42-3.58-8-8-8s-8,3.58-8,8v72
				c0.03,22.08,17.92,39.97,40,40h208c22.08-0.03,39.97-17.92,40-40v-80C384,355.58,380.42,352,376,352z M368,440
				c0,13.26-10.74,24-24,24H136c-13.25,0-24-10.74-24-24v-24h256V440z"/>
			<path id="path8" class="st0" d="M224,24h-16c-4.42,0-8,3.58-8,8s3.58,8,8,8h16c4.42,0,8-3.58,8-8S228.42,24,224,24z"/>
			<path id="path10" class="st0" d="M272,24h-16c-4.42,0-8,3.58-8,8s3.58,8,8,8h16c4.42,0,8-3.58,8-8S276.42,24,272,24z"/>
			<path id="path12" class="st0" d="M478.16,154.89L478.16,154.89c-1.52-1.83-3.78-2.89-6.16-2.89H262.02l-4.08-27.51
				c-1.8-11.74-11.87-20.42-23.74-20.49H200v16h34.19c3.97,0,7.34,2.9,7.92,6.83l27.95,188.68c1.8,11.74,11.87,20.42,23.74,20.49
				h19.66c4.33,12.44,17.93,19.01,30.38,14.68c6.88-2.4,12.28-7.8,14.68-14.68h34.94c4.42,12.5,18.13,19.05,30.63,14.63
				s19.05-18.13,14.63-30.63c-4.42-12.5-18.13-19.05-30.63-14.63c-6.83,2.42-12.21,7.79-14.63,14.63h-34.94
				c-4.33-12.44-17.93-19.01-30.38-14.68c-6.88,2.4-12.28,7.8-14.68,14.68h-19.66c-3.96-0.02-7.32-2.92-7.92-6.83L283.35,296H448
				c3.85,0,7.14-2.74,7.86-6.52l24-128C480.3,159.14,479.68,156.72,478.16,154.89z M416,320c4.42,0,8,3.58,8,8s-3.58,8-8,8
				s-8-3.58-8-8S411.58,320,416,320z M336,320c4.42,0,8,3.58,8,8s-3.58,8-8,8s-8-3.58-8-8S331.58,320,336,320z M441.36,280H280.98
				l-16.58-112H462.4L441.36,280z"/>
			<path id="path14" class="st0" d="M208,240c0-57.44-46.56-104-104-104S0,182.56,0,240s46.56,104,104,104
				C161.41,343.93,207.94,297.41,208,240z M16,240c0-48.6,39.4-88,88-88s88,39.4,88,88s-39.4,88-88,88
				C55.42,327.94,16.06,288.58,16,240z"/>
			<path id="path16" class="st0" d="M112,304v-9.14c17.08-4.4,27.36-21.81,22.97-38.89c-3.64-14.13-16.38-23.99-30.97-23.98
				c-8.84,0-16-7.16-16-16s7.16-16,16-16s16,7.16,16,16c0,4.42,3.58,8,8,8s8-3.58,8-8c-0.05-14.55-9.91-27.23-24-30.86V176
				c0-4.42-3.58-8-8-8s-8,3.58-8,8v9.14c-17.08,4.4-27.36,21.81-22.97,38.89C76.67,238.15,89.41,248.02,104,248
				c8.84,0,16,7.16,16,16s-7.16,16-16,16s-16-7.16-16-16c0-4.42-3.58-8-8-8s-8,3.58-8,8c0.06,14.55,9.91,27.23,24,30.86V304
				c0,4.42,3.58,8,8,8S112,308.42,112,304z"/>
			<path id="path18" class="st0" d="M288,192h112c4.42,0,8-3.58,8-8s-3.58-8-8-8H288c-4.42,0-8,3.58-8,8S283.58,192,288,192z"/>
			<path id="path20" class="st0" d="M424,192h16c4.42,0,8-3.58,8-8s-3.58-8-8-8h-16c-4.42,0-8,3.58-8,8S419.58,192,424,192z"/>
		</g>
	</g>
</g>
<g id="g28">
</g>
<g id="g30">
</g>
<g id="g32">
</g>
<g id="g34">
</g>
<g id="g36">
</g>
<g id="g38">
</g>
<g id="g40">
</g>
<g id="g42">
</g>
<g id="g44">
</g>
<g id="g46">
</g>
<g id="g48">
</g>
<g id="g50">
</g>
<g id="g52">
</g>
<g id="g54">
</g>
<g id="g56">
</g>
</svg>
