<?xml version="1.0" encoding="utf-8"?>
<!-- Generator: Adobe Illustrator 24.0.1, SVG Export Plug-In . SVG Version: 6.00 Build 0)  -->
<svg version="1.1"
	 id="Capa_1" inkscape:version="0.92.3 (unknown)" sodipodi:docname="tiendas_virtuales.svg" xmlns:cc="http://creativecommons.org/ns#" xmlns:dc="http://purl.org/dc/elements/1.1/" xmlns:inkscape="http://www.inkscape.org/namespaces/inkscape" xmlns:rdf="http://www.w3.org/1999/02/22-rdf-syntax-ns#" xmlns:sodipodi="http://sodipodi.sourceforge.net/DTD/sodipodi-0.dtd" xmlns:svg="http://www.w3.org/2000/svg"
	 xmlns="http://www.w3.org/2000/svg" xmlns:xlink="http://www.w3.org/1999/xlink" x="0px" y="0px" viewBox="0 0 480 480"
	 style="enable-background:new 0 0 480 480;" xml:space="preserve">
<style type="text/css">
	.st0{fill:#8DBF24;}
</style>
<sodipodi:namedview  bordercolor="#666666" borderopacity="1" gridtolerance="10" guidetolerance="10" id="namedview57" inkscape:current-layer="Capa_1" inkscape:cx="-397.01695" inkscape:cy="256" inkscape:pageopacity="0" inkscape:pageshadow="2" inkscape:window-height="1056" inkscape:window-maximized="1" inkscape:window-width="1855" inkscape:window-x="65" inkscape:window-y="24" inkscape:zoom="0.4609375" objecttolerance="10" pagecolor="#ffffff" showgrid="false">
	</sodipodi:namedview>
<g id="g6" transform="matrix(0.9279661,0,0,0.90957062,2.3389833,-6.6805835)">
	<g id="g4">
		<path id="path2" inkscape:connector-curvature="0" class="st0" d="M480.45,40.08H31.55C14.15,40.08,0,54.23,0,71.63v304.61
			c0,17.4,14.15,31.55,31.55,31.55h151.83l-6.14,49.13h-25.44c-4.14,0-7.5,3.36-7.5,7.5s3.36,7.5,7.5,7.5h208.42
			c4.14,0,7.5-3.36,7.5-7.5s-3.36-7.5-7.5-7.5h-25.44l-6.14-49.13h151.83c17.4,0,31.55-14.15,31.55-31.55V71.63
			C512,54.23,497.85,40.08,480.45,40.08z M192.35,456.92l6.14-49.13h27.6l2.71,10.83c3.13,12.5,14.31,21.23,27.2,21.23
			c12.89,0,24.07-8.73,27.2-21.23l2.71-10.83h27.6l6.14,49.13H192.35z M241.56,407.79h28.89l-1.8,7.19
			c-1.45,5.81-6.65,9.87-12.65,9.87s-11.19-4.06-12.65-9.87L241.56,407.79z M497,376.24L497,376.24c0,9.13-7.42,16.55-16.55,16.55
			H31.55c-9.13,0-16.55-7.42-16.55-16.55V71.63c0-9.12,7.42-16.55,16.55-16.55h448.9c9.13,0,16.55,7.42,16.55,16.55L497,376.24z"/>
	</g>
</g>
<g id="g12" transform="matrix(0.9279661,0,0,0.90957062,2.3389833,-6.6805835)">
	<g id="g10">
		<path id="path8" inkscape:connector-curvature="0" class="st0" d="M424.34,72.15H39.56c-4.14,0-7.5,3.36-7.5,7.5v288.58
			c0,4.14,3.36,7.5,7.5,7.5H55.6c4.14,0,7.5-3.36,7.5-7.5c0-4.14-3.36-7.5-7.5-7.5h-8.53V87.15h377.27c4.14,0,7.5-3.36,7.5-7.5
			C431.84,75.5,428.48,72.15,424.34,72.15z"/>
	</g>
</g>
<g id="g18" transform="matrix(0.9279661,0,0,0.90957062,2.3389833,-6.6805835)">
	<g id="g16">
		<path id="path14" inkscape:connector-curvature="0" class="st0" d="M472.44,72.15H456.4c-4.14,0-7.5,3.36-7.5,7.5
			c0,4.14,3.36,7.5,7.5,7.5h8.53v273.58H87.66c-4.14,0-7.5,3.36-7.5,7.5c0,4.14,3.36,7.5,7.5,7.5h384.77c4.14,0,7.5-3.36,7.5-7.5
			V79.65C479.94,75.5,476.58,72.15,472.44,72.15z"/>
	</g>
</g>
<g id="g24" transform="matrix(0.9279661,0,0,0.90957062,2.3389833,-6.6805835)">
	<g id="g22">
		<path id="path20" inkscape:connector-curvature="0" class="st0" d="M358.1,155.18c-1.35-1.72-3.38-2.77-5.57-2.87l-176.35-8.02
			c-0.14-0.01-0.27-0.01-0.41-0.01c-1.04-3.43-3.25-6.4-6.24-8.39l-21.6-14.4c-3.45-2.3-8.1-1.37-10.4,2.08
			c-2.3,3.45-1.37,8.1,2.08,10.4l21.6,14.4c0.1,0.07,0.18,0.17,0.21,0.29l27.51,96.28c0.86,3,2.27,5.7,4.08,8.03l-10.07,20.13
			c-2.42,4.85-2.17,10.49,0.68,15.1c1.03,1.67,2.34,3.09,3.85,4.23c-1.97,3.44-3.1,7.42-3.1,11.66c0,12.98,10.56,23.53,23.53,23.53
			c12.98,0,23.53-10.56,23.53-23.53c0-3.01-0.57-5.89-1.61-8.53h68.38c-1.03,2.65-1.61,5.52-1.61,8.53
			c0,12.98,10.56,23.53,23.53,23.53s23.53-10.56,23.53-23.53c0-3.76-0.89-7.32-2.47-10.48c1.51-1.37,2.47-3.35,2.47-5.55
			c0-4.14-3.36-7.5-7.5-7.5H196.83c-0.11,0-0.29,0-0.44-0.24c-0.15-0.24-0.07-0.4-0.02-0.5l9.27-18.54
			c1.89,0.48,3.85,0.75,5.87,0.75c0.93,0,1.86-0.05,2.8-0.17l105.39-12.4c13.61-1.6,24.56-11.71,27.25-25.15l12.61-63.03
			C359.98,159.13,359.45,156.91,358.1,155.18L358.1,155.18z M320.13,295.56c4.7,0,8.53,3.83,8.53,8.53c0,4.7-3.83,8.53-8.53,8.53
			c-4.7,0-8.53-3.83-8.53-8.53C311.6,299.39,315.42,295.56,320.13,295.56z M207.9,295.56c4.71,0,8.53,3.83,8.53,8.53
			c0,4.7-3.83,8.53-8.53,8.53s-8.53-3.83-8.53-8.53C199.37,299.39,203.2,295.56,207.9,295.56z M189.51,192.39l-9.4-32.89l29.99,1.36
			l5.2,31.53H189.51z M212.55,246.96c-4.18,0.49-8.05-2.09-9.2-6.13l-9.56-33.44h23.97l6.3,38.22L212.55,246.96z M256.52,241.79
			l-17.53,2.06l-6.01-36.46h23.54V241.79z M256.52,192.39H230.5l-5.08-30.83l31.1,1.41V192.39z M294.5,237.32l-22.98,2.7v-32.63
			h25.69L294.5,237.32z M298.57,192.39h-27.05v-28.74l29.53,1.34L298.57,192.39z M332.23,221.37c-1.41,7.05-7.15,12.35-14.29,13.19
			l-8.22,0.97l2.55-28.14h22.76L332.23,221.37z M338.03,192.39h-24.4l2.42-26.72l27.08,1.23L338.03,192.39z"/>
	</g>
</g>
<g id="g26" transform="translate(0,-32)">
</g>
<g id="g28" transform="translate(0,-32)">
</g>
<g id="g30" transform="translate(0,-32)">
</g>
<g id="g32" transform="translate(0,-32)">
</g>
<g id="g34" transform="translate(0,-32)">
</g>
<g id="g36" transform="translate(0,-32)">
</g>
<g id="g38" transform="translate(0,-32)">
</g>
<g id="g40" transform="translate(0,-32)">
</g>
<g id="g42" transform="translate(0,-32)">
</g>
<g id="g44" transform="translate(0,-32)">
</g>
<g id="g46" transform="translate(0,-32)">
</g>
<g id="g48" transform="translate(0,-32)">
</g>
<g id="g50" transform="translate(0,-32)">
</g>
<g id="g52" transform="translate(0,-32)">
</g>
<g id="g54" transform="translate(0,-32)">
</g>
</svg>
