<?xml version="1.0" encoding="utf-8"?>
<!-- Generator: Adobe Illustrator 24.0.1, SVG Export Plug-In . SVG Version: 6.00 Build 0)  -->
<svg version="1.1" id="Layer_1" xmlns="http://www.w3.org/2000/svg" xmlns:xlink="http://www.w3.org/1999/xlink" x="0px" y="0px"
	 viewBox="0 0 512 512" style="enable-background:new 0 0 512 512;" xml:space="preserve">
<style type="text/css">
	.st0{fill:#8DBF24;}
</style>
<g>
	<path class="st0" d="M281.9,163c-0.71,3.61,0.65,7.24,3.59,9.5c1.67,1.28,3.74,1.98,5.84,1.98c1.46,0,2.93-0.34,4.25-0.99
		l21.29-10.47c11.28,5.26,23.71,8.03,36.21,8.03c14.93,0,28.97-3.86,41.2-10.61l25.16,25.16c2.06,2.06,4.8,3.2,7.71,3.2
		c2.92,0,5.66-1.13,7.72-3.2l28.6-28.6c9.51-9.51,9.51-24.98,0-34.5c-4.61-4.61-10.73-7.14-17.25-7.14c-5.59,0-10.9,1.88-15.21,5.32
		c4.87-10.73,7.59-22.63,7.59-35.15C438.61,38.37,400.25,0,353.09,0s-85.52,38.37-85.52,85.52c0,19.65,6.73,38.61,19.04,53.8
		L281.9,163z M439.58,133.11c1.78-1.77,4.14-2.75,6.64-2.75c2.51,0,4.87,0.98,6.64,2.75c3.66,3.66,3.66,9.63,0,13.29l-25.71,25.71
		l-25.71-25.71c-3.66-3.66-3.66-9.63,0-13.29c1.77-1.78,4.13-2.75,6.64-2.75c2.51,0,4.87,0.98,6.64,2.75l7.12,7.12
		c2.93,2.93,7.68,2.93,10.61,0L439.58,133.11z M282.56,85.52c0-38.89,31.64-70.52,70.52-70.52s70.53,31.64,70.53,70.52
		c0,11.21-2.65,21.82-7.33,31.23c-2.59-0.92-5.35-1.41-8.19-1.41c-6.52,0-12.64,2.54-17.25,7.14c-6.95,6.96-8.8,17.09-5.58,25.76
		c-9.65,4.98-20.59,7.79-32.18,7.79c-11.38,0-22.69-2.78-32.72-8.04c-1.09-0.57-2.29-0.86-3.48-0.86c-1.13,0-2.27,0.25-3.31,0.77
		l-14.84,7.3l3.28-16.53c0.46-2.3-0.19-4.68-1.74-6.43C288.85,119.37,282.56,102.77,282.56,85.52z"/>
	<path class="st0" d="M344.13,142.63c2.4,2.4,5.6,3.73,9,3.73c3.4,0,6.59-1.32,9-3.73l43.81-43.81c13.01-13.02,13.01-34.19,0-47.21
		c-6.31-6.3-14.69-9.77-23.61-9.77s-17.3,3.47-23.6,9.77l-5.6,5.61l-5.61-5.61c-6.3-6.3-14.69-9.77-23.6-9.77s-17.3,3.47-23.61,9.77
		c-13.01,13.02-13.01,34.19,0,47.21L344.13,142.63z M310.93,62.23c3.47-3.47,8.09-5.38,13-5.38c4.91,0,9.52,1.91,13,5.38
		l10.91,10.91c2.93,2.93,7.68,2.93,10.61,0l10.91-10.91c3.47-3.47,8.09-5.38,12.99-5.38c4.91,0,9.53,1.91,13,5.38
		c7.16,7.17,7.16,18.83,0,25.99l-42.2,42.2l-42.2-42.2C303.76,81.05,303.76,69.39,310.93,62.23z"/>
	<path class="st0" d="M334.19,92.08c4.14,0,7.5-3.36,7.5-7.5v-4.45c0-4.14-3.36-7.5-7.5-7.5c-4.14,0-7.5,3.36-7.5,7.5v4.45
		C326.69,88.72,330.05,92.08,334.19,92.08z"/>
	<path class="st0" d="M372.06,92.08c4.14,0,7.5-3.36,7.5-7.5v-4.45c0-4.14-3.36-7.5-7.5-7.5c-4.14,0-7.5,3.36-7.5,7.5v4.45
		C364.56,88.72,367.92,92.08,372.06,92.08z"/>
	<path class="st0" d="M336.71,100.54c0,9.05,7.36,16.41,16.41,16.41c9.05,0,16.41-7.36,16.41-16.41c0-4.14-3.36-7.5-7.5-7.5
		c-4.14,0-7.5,3.36-7.5,7.5c0,0.78-0.63,1.41-1.41,1.41s-1.41-0.63-1.41-1.41c0-4.14-3.36-7.5-7.5-7.5
		C340.07,93.04,336.71,96.4,336.71,100.54z"/>
	<path class="st0" d="M118.08,346.66c-2.89,1.67-4.96,4.37-5.82,7.6c-0.87,3.23-0.43,6.61,1.24,9.5l8.45,14.63
		c2.23,3.86,6.39,6.25,10.86,6.25c2.19,0,4.35-0.58,6.25-1.67l22.7-13.11c2.89-1.67,4.96-4.37,5.83-7.6s0.43-6.61-1.24-9.5
		l-8.45-14.63c-2.23-3.86-6.39-6.25-10.86-6.25c-2.19,0-4.35,0.58-6.25,1.67L118.08,346.66z M152.1,358.11l-18.41,10.63l-5.96-10.33
		l18.41-10.63L152.1,358.11z"/>
	<path class="st0" d="M124.19,292.32c-2.19,0-4.35,0.58-6.25,1.68l-22.7,13.11c-5.98,3.45-8.03,11.13-4.58,17.1l8.45,14.63
		c2.23,3.86,6.39,6.25,10.86,6.25c2.19,0,4.35-0.58,6.25-1.68l22.7-13.11c5.98-3.45,8.04-11.12,4.58-17.1l-8.45-14.63
		C132.82,294.72,128.66,292.32,124.19,292.32z M110.85,329.18l-5.96-10.33l18.4-10.63l5.96,10.33L110.85,329.18z"/>
	<path class="st0" d="M336.68,276.47l17.93-10.36c8.38-4.84,11.25-15.58,6.42-23.96l-32.21-55.8c-3.12-5.41-8.95-8.76-15.22-8.76
		c-3.06,0-6.09,0.81-8.74,2.34l-17.93,10.35l-5.22-9.04c-2.07-3.59-6.66-4.82-10.24-2.75c-3.59,2.07-4.82,6.66-2.75,10.25
		l96.17,166.57l-15.21,8.79L217.52,135.21l15.21-8.79l17.5,30.32c2.07,3.59,6.66,4.82,10.25,2.74c3.59-2.07,4.82-6.66,2.75-10.24
		l-18.75-32.47c-3.45-5.98-11.13-8.03-17.1-4.58l-19.52,11.27c-2.89,1.67-4.96,4.37-5.82,7.6c-0.87,3.23-0.43,6.61,1.24,9.5
		l8.67,15.01l-59.72,103.43l-0.53-0.92c-2.23-3.86-6.39-6.25-10.86-6.25c-2.19,0-4.35,0.58-6.24,1.67L51.85,301.3
		c-2.89,1.67-4.96,4.37-5.82,7.6c-0.87,3.23-0.43,6.61,1.25,9.5l7.97,13.81l-26.98,15.58c-2.89,1.67-4.96,4.37-5.83,7.6
		s-0.43,6.61,1.25,9.5l30.17,52.27c2.23,3.86,6.39,6.25,10.85,6.25c2.19,0,4.35-0.58,6.25-1.67l26.98-15.58l7.98,13.82
		c0,0,0.01,0.01,0.01,0.02l49.52,85.76c2.23,3.86,6.39,6.26,10.86,6.26c2.19,0,4.35-0.58,6.25-1.68l15.02-8.67
		c5.33-3.08,8.13-9.88,6.52-15.82l-24.08-88.41l35.78-20.66c2.89-1.67,4.96-4.37,5.83-7.61s0.43-6.61-1.25-9.5l-0.53-0.92h25.09
		c4.14,0,7.5-3.36,7.5-7.5c0-4.14-3.36-7.5-7.5-7.5h-33.75l-40.26-69.73l59.72-103.43l99.98,173.16h-48.69c-4.14,0-7.5,3.36-7.5,7.5
		c0,4.14,3.36,7.5,7.5,7.5h57.35l8.67,15.02c2.32,4.01,6.53,6.26,10.86,6.26c2.12,0,4.27-0.54,6.24-1.68l19.51-11.27
		c2.89-1.67,4.96-4.37,5.83-7.6s0.43-6.61-1.25-9.5L336.68,276.47z M312.36,192.93c0.38-0.22,0.8-0.33,1.24-0.33
		c0.73,0,1.69,0.33,2.23,1.26l32.22,55.8c0.69,1.19,0.26,2.78-0.93,3.47l-17.93,10.35l-34.76-60.2L312.36,192.93z M65.6,407.5
		l-27.69-47.96l24.83-14.34l27.69,47.96L65.6,407.5z M179.4,489.04l-12.22,7.05l-42.02-72.79l31.4-18.13L179.4,489.04z
		 M117.66,410.32L61.5,313.05l78.46-45.3l56.16,97.27L117.66,410.32z"/>
	<path class="st0" d="M430.18,209.54c-33.98,0-61.63,27.65-61.63,61.63c0,33.98,27.65,61.63,61.63,61.63
		c13.59,0,26.47-4.34,37.27-12.54c3.3-2.51,3.94-7.21,1.43-10.51c-2.51-3.3-7.21-3.94-10.51-1.43c-8.16,6.2-17.91,9.48-28.19,9.48
		c-25.71,0-46.63-20.92-46.63-46.63c0-25.71,20.92-46.63,46.63-46.63s46.63,20.92,46.63,46.63c0,3.74-0.44,7.46-1.32,11.07
		c-0.98,4.02,1.49,8.08,5.52,9.06c4.03,0.98,8.08-1.49,9.06-5.52c1.16-4.76,1.74-9.67,1.74-14.61
		C491.81,237.18,464.16,209.54,430.18,209.54z"/>
	<path class="st0" d="M416.05,259.5v-5.09c0-4.14-3.36-7.5-7.5-7.5s-7.5,3.36-7.5,7.5v5.09c0,4.14,3.36,7.5,7.5,7.5
		S416.05,263.64,416.05,259.5z"/>
	<path class="st0" d="M459.32,259.5v-5.09c0-4.14-3.36-7.5-7.5-7.5s-7.5,3.36-7.5,7.5v5.09c0,4.14,3.36,7.5,7.5,7.5
		C455.96,267,459.32,263.64,459.32,259.5z"/>
	<path class="st0" d="M430.18,306.53c13.35,0,24.21-10.86,24.21-24.21c0-4.14-3.36-7.5-7.5-7.5c-4.14,0-7.5,3.36-7.5,7.5
		c0,5.08-4.13,9.21-9.21,9.21c-5.08,0-9.21-4.13-9.21-9.21c0-4.14-3.36-7.5-7.5-7.5c-4.14,0-7.5,3.36-7.5,7.5
		C405.97,295.67,416.83,306.53,430.18,306.53z"/>
</g>
</svg>
