<?xml version="1.0" encoding="utf-8"?>
<!-- Generator: Adobe Illustrator 24.0.1, SVG Export Plug-In . SVG Version: 6.00 Build 0)  -->
<svg version="1.1"
	 id="Capa_1" inkscape:version="0.92.3 (unknown)" sodipodi:docname="community_manager.svg" xmlns:cc="http://creativecommons.org/ns#" xmlns:dc="http://purl.org/dc/elements/1.1/" xmlns:inkscape="http://www.inkscape.org/namespaces/inkscape" xmlns:rdf="http://www.w3.org/1999/02/22-rdf-syntax-ns#" xmlns:sodipodi="http://sodipodi.sourceforge.net/DTD/sodipodi-0.dtd" xmlns:svg="http://www.w3.org/2000/svg"
	 xmlns="http://www.w3.org/2000/svg" xmlns:xlink="http://www.w3.org/1999/xlink" x="0px" y="0px" viewBox="0 0 512 512"
	 style="enable-background:new 0 0 512 512;" xml:space="preserve">
<style type="text/css">
	.st0{fill:#8DBF24;}
</style>
<sodipodi:namedview  bordercolor="#666666" borderopacity="1" gridtolerance="10" guidetolerance="10" id="namedview45" inkscape:current-layer="Capa_1" inkscape:cx="256" inkscape:cy="256" inkscape:pageopacity="0" inkscape:pageshadow="2" inkscape:window-height="1056" inkscape:window-maximized="1" inkscape:window-width="1855" inkscape:window-x="65" inkscape:window-y="24" inkscape:zoom="0.4609375" objecttolerance="10" pagecolor="#ffffff" showgrid="false">
	</sodipodi:namedview>
<g id="g8">
	<path id="path2" class="st0" d="M506.7,235c-5.7-7.9-15.3-12.1-25-11.1c-9.7,1.1-18.1,7.3-22,16.3l-7.5,17.5
		c-5.5-88.1-56.4-132.3-79.2-147.8c18.7-18.1,24.6-45.8,14.8-70C378,15.8,354.5,0,328.4,0s-49.5,15.9-59.3,40.1s-3.8,51.9,15,70
		C274,117,264.6,125,256.3,134c-8.5-9-17.9-17.1-28.2-24.1c18.7-18.2,24.5-45.9,14.7-70.1C232.9,15.7,209.4-0.1,183.3,0
		s-49.5,16-59.2,40.2s-3.7,51.9,15.1,70c-23.1,15.7-73.8,60.2-78.9,148.7l-8-18.6c-3.9-9-12.2-15.2-22-16.3
		c-9.7-1.1-19.3,3.1-25,11.1s-6.8,18.3-2.7,27.2L36,335.8c4.5,10,10.8,19,18.5,26.7l52.6,52.6c-3,3.1-4.6,7.3-4.6,11.6V495
		c0,9.4,7.6,17.1,17.1,17.1h93.8c9.4,0,17.1-7.6,17.1-17.1v-59.7h51.2V495c0,9.4,7.6,17.1,17.1,17.1h93.8c9.4,0,17.1-7.6,17.1-17.1
		v-68.3c0-4.3-1.7-8.5-4.6-11.6l52.6-52.6c7.7-7.7,14-16.8,18.5-26.7l33.4-73.6C513.5,253.3,512.5,242.9,506.7,235z M281.6,64.1
		c0-25.9,21-46.9,46.9-46.9s46.9,21,46.9,46.9s-21,46.9-46.9,46.9S281.6,90,281.6,64.1z M299.1,120.8c9.1,4.8,19.2,7.2,29.5,7.2
		c10.4,0,20.6-2.5,29.8-7.4c16.3,9.3,80.2,53,77.3,159.4c-10.5-4.6-22.5-4.4-32.9,0.6c-0.3-33-6.9-65.7-19.4-96.3
		c-1.2-2.8-3.8-4.8-6.8-5.1c-3-0.4-6,0.9-7.8,3.4c-1.8,2.4-2.2,5.7-1,8.5c0.2,0.6,23.3,55.3,16.9,102.8
		c-11.6,9.7-24.7,17.5-38.7,23.2c-1.7,0.6-3.3,1.4-4.9,2.1c-3.3-49.3-23.9-76.1-36.4-88.1c11.1-15.4,14.3-35.2,8.4-53.3
		s-20-32.3-38.1-38.2C282.1,132.5,290.3,126.2,299.1,120.8z M256,153.7c23.6,0,42.7,19.1,42.7,42.7S279.6,239,256,239
		s-42.7-19.1-42.7-42.7C213.4,172.8,232.5,153.7,256,153.7z M136.6,64.1c0-25.9,21-46.9,46.9-46.9s46.9,21,46.9,46.9
		s-21,46.9-46.9,46.9S136.6,90,136.6,64.1z M154,120.8c18.6,9.7,40.7,9.7,59.2-0.1c8.8,5.4,17,11.7,24.4,18.8
		c-18.2,5.8-32.5,20-38.4,38.1c-6,18.1-2.9,38,8.3,53.5c-12.6,12-33.1,38.8-36.4,88.1c-1.6-0.7-3.3-1.5-5-2.1
		c-14-5.6-27.1-13.5-38.7-23.2c-6.4-47.3,16.7-102.2,16.9-102.8c1.8-4.3-0.2-9.3-4.5-11.2s-9.3,0.1-11.2,4.5
		c-12.5,30.6-19.1,63.2-19.4,96.3c-10.2-4.9-22-5.1-32.3-0.7C74.1,174.2,137.3,130.5,154,120.8z M66.5,350.4
		c-6.3-6.3-11.4-13.6-15.1-21.7L18,255.1c-1.5-3.1-1.2-6.8,0.7-9.7l0,0c1.8-2.9,5.1-4.7,8.5-4.6c4.1,0,7.7,2.4,9.3,6.1l19.1,44.5
		c5.1,11.9,12.4,22.7,21.5,31.8l39,39c2.2,2.2,5.3,3,8.2,2.2c2.9-0.8,5.2-3.1,6-6c0.8-2.9-0.1-6.1-2.2-8.2l-39-39
		c-3.9-3.9-7.4-8.2-10.5-12.8c8.2-6.3,19.7-6.1,27.6,0.5c2.4,2.1,4.8,4,7.2,5.9c0.4,0.3,0.8,0.7,1.2,0.9c13.7,11.7,29.3,21,46,27.6
		c8.2,3,15.3,8.3,20.5,15.2c9.9,13,15.2,28.9,15,45.2v15.9h-70.5L66.5,350.4z M119.5,494.9v-68.3h93.8v68.3L119.5,494.9L119.5,494.9
		z M284,418.2h-56c-3-5.3-8.6-8.5-14.7-8.5v-15.9c0-2.7-0.1-5.4-0.3-8c0.2-0.5,0.3-1.1,0.3-1.7c0-0.5,0.3-51.5,23.7-79.9
		c1.9-2.4,2.5-5.6,1.4-8.4c-1.1-2.9-3.6-4.9-6.6-5.4s-6.1,0.6-8,3c-11.8,15.7-19.8,33.9-23.2,53.3c-1.8-3-3.8-5.9-6-8.7
		c-2.1-2.6-4.4-5.1-6.8-7.4c0.6-50.7,21-76.9,31.6-87c21.5,16.8,51.7,16.8,73.1,0c10.6,10.1,31,36.3,31.6,87
		c-2.4,2.3-4.7,4.8-6.8,7.4c-2.2,2.8-4.2,5.7-6,8.7c-3.5-19.3-11.4-37.6-23.2-53.3c-3-3.6-8.4-4.1-12-1.2c-3.6,3-4.2,8.4-1.2,12
		c23.3,28.3,23.7,79.4,23.7,79.9c0.1,0.6,0.2,1.1,0.3,1.7c-0.2,2.7-0.3,5.3-0.3,8v15.9C292.6,409.6,287,412.9,284,418.2z
		 M392.5,494.9h-93.8v-68.3h93.8V494.9z M493.9,255.2l-33.4,73.6c-3.7,8.1-8.8,15.4-15.1,21.7l-59.2,59.2h-70.5v-15.9
		c-0.3-16.3,5-32.3,15-45.2c5.2-7,12.3-12.2,20.5-15.2c16.8-6.6,32.3-15.9,46-27.6c0.4-0.3,0.8-0.6,1.2-0.9c2.4-1.9,4.8-3.9,7.2-5.9
		c8-6.6,19.5-6.8,27.7-0.5c-3.1,4.6-6.6,8.9-10.6,12.9l-39,39c-2.2,2.2-3,5.3-2.2,8.2c0.8,2.9,3.1,5.2,6,6s6.1-0.1,8.2-2.2l39-39
		c9.1-9.1,16.4-19.9,21.5-31.8l19.1-44.5c1.6-3.7,5.3-6.1,9.3-6.1c3.4,0,6.7,1.8,8.5,4.7C495.1,248.4,495.4,252,493.9,255.2z"/>
	<path id="path4" class="st0" d="M196.3,452.3h-8.5c-4.7,0-8.5,3.8-8.5,8.5s3.8,8.5,8.5,8.5h8.5c4.7,0,8.5-3.8,8.5-8.5
		S201,452.3,196.3,452.3z"/>
	<path id="path6" class="st0" d="M315.7,469.3h8.5c4.7,0,8.5-3.8,8.5-8.5s-3.8-8.5-8.5-8.5h-8.5c-4.7,0-8.5,3.8-8.5,8.5
		S311,469.3,315.7,469.3z"/>
</g>
<g id="g14">
</g>
<g id="g16">
</g>
<g id="g18">
</g>
<g id="g20">
</g>
<g id="g22">
</g>
<g id="g24">
</g>
<g id="g26">
</g>
<g id="g28">
</g>
<g id="g30">
</g>
<g id="g32">
</g>
<g id="g34">
</g>
<g id="g36">
</g>
<g id="g38">
</g>
<g id="g40">
</g>
<g id="g42">
</g>
</svg>
