<?xml version="1.0" encoding="utf-8"?>
<!-- Generator: Adobe Illustrator 24.0.1, SVG Export Plug-In . SVG Version: 6.00 Build 0)  -->
<svg version="1.1"
	 id="svg10" inkscape:version="0.92.3 (unknown)" sodipodi:docname="paginas_web.svg" xmlns:cc="http://creativecommons.org/ns#" xmlns:dc="http://purl.org/dc/elements/1.1/" xmlns:inkscape="http://www.inkscape.org/namespaces/inkscape" xmlns:rdf="http://www.w3.org/1999/02/22-rdf-syntax-ns#" xmlns:sodipodi="http://sodipodi.sourceforge.net/DTD/sodipodi-0.dtd" xmlns:svg="http://www.w3.org/2000/svg"
	 xmlns="http://www.w3.org/2000/svg" xmlns:xlink="http://www.w3.org/1999/xlink" x="0px" y="0px" viewBox="0 0 480 480"
	 style="enable-background:new 0 0 480 480;" xml:space="preserve">
<style type="text/css">
	.st0{fill:#8DBF24;}
</style>
<sodipodi:namedview  bordercolor="#666666" borderopacity="1" gridtolerance="10" guidetolerance="10" id="namedview12" inkscape:current-layer="svg10" inkscape:cx="-88.135593" inkscape:cy="320" inkscape:pageopacity="0" inkscape:pageshadow="2" inkscape:window-height="1056" inkscape:window-maximized="1" inkscape:window-width="1855" inkscape:window-x="65" inkscape:window-y="24" inkscape:zoom="0.36875" objecttolerance="10" pagecolor="#ffffff" showgrid="false">
	</sodipodi:namedview>
<path id="path2" inkscape:connector-curvature="0" class="st0" d="M240.72,3.24h-0.1C110.22,3.24,4.5,108.96,4.5,239.37
	c0,130.41,105.72,236.13,236.13,236.13h0.1c130.41,0,236.13-105.72,236.13-236.13C476.85,108.96,371.13,3.24,240.72,3.24z
	 M443.37,152.79H338.91c-6.09-21.86-14.58-42.97-25.32-62.97h88.82C419.56,108.33,433.41,129.62,443.37,152.79L443.37,152.79z
	 M240.65,21.55c17.21,15.53,32.38,33.18,45.15,52.53h-90.24C208.31,54.74,223.46,37.08,240.65,21.55z M176.7,74.08H95.18
	c34.66-30.65,78.13-49.57,124.19-54.04C203.08,36.32,188.76,54.46,176.7,74.08z M261.97,20.03c46.1,4.45,89.6,23.37,124.29,54.05
	h-81.6C292.6,54.45,278.28,36.31,261.97,20.03z M295.55,89.82c11.5,19.85,20.61,40.98,27.16,62.97H158.72
	c6.52-21.98,15.62-43.12,27.09-62.97H295.55z M79.03,89.82h88.75c-10.72,19.99-19.19,41.11-25.26,62.97H38.08
	C48.04,129.62,61.89,108.33,79.03,89.82z M32.08,168.53h417.29c15.66,45.93,15.66,95.75,0,141.68H32.08
	C16.42,264.28,16.42,214.46,32.08,168.53L32.08,168.53z M240.66,457.19c-17.19-15.53-32.35-33.18-45.1-52.53h90.24
	C273.03,424.01,257.86,441.66,240.66,457.19L240.66,457.19z M304.67,404.66h81.6c-34.71,30.7-78.24,49.62-124.36,54.06
	C278.23,442.44,292.58,424.3,304.67,404.66L304.67,404.66z M219.37,458.7c-46.06-4.47-89.52-23.39-124.19-54.04h81.52
	C188.76,424.29,203.08,442.42,219.37,458.7z M185.82,388.92c-11.48-19.85-20.57-40.98-27.09-62.97h163.99
	c-6.55,21.98-15.67,43.12-27.16,62.97H185.82z M38.08,325.95h104.45c6.07,21.86,14.54,42.97,25.26,62.97H79.03
	C61.89,370.42,48.04,349.12,38.08,325.95z M402.42,388.92h-88.82c10.74-19.99,19.23-41.11,25.32-62.97h104.45
	C433.41,349.12,419.56,370.42,402.42,388.92L402.42,388.92z"/>
<path id="path4" inkscape:connector-curvature="0" class="st0" d="M67.84,280.8c0.93,3.39,3.98,5.76,7.49,5.8h0.1
	c3.47,0,6.54-2.28,7.54-5.61l16.07-53.58l16.07,53.58c1,3.33,4.06,5.61,7.54,5.61h0.1c3.51-0.04,6.57-2.41,7.49-5.8l23.61-86.58
	l-15.19-4.14l-16.38,60.05l-15.74-52.37c-1-3.33-4.06-5.61-7.54-5.61c-3.47,0-6.54,2.28-7.54,5.61l-15.74,52.37l-16.38-60.05
	l-15.19,4.14L67.84,280.8z"/>
<path id="path6" inkscape:connector-curvature="0" class="st0" d="M217.01,286.6h0.1c3.47,0,6.54-2.28,7.54-5.61l16.07-53.58
	l16.07,53.58c1,3.33,4.06,5.61,7.54,5.61h0.1c3.51-0.04,6.57-2.41,7.49-5.8l23.61-86.58l-15.19-4.14l-16.38,60.05l-15.74-52.37
	c-1-3.33-4.06-5.61-7.54-5.61c-3.47,0-6.54,2.28-7.54,5.61l-15.74,52.37l-16.38-60.05l-15.19,4.14l23.61,86.58
	C210.38,284.21,213.47,286.58,217.01,286.6L217.01,286.6z"/>
<path id="path8" inkscape:connector-curvature="0" class="st0" d="M358.68,286.6h0.1c3.47,0,6.54-2.28,7.54-5.61l16.07-53.58
	l16.07,53.58c1,3.33,4.06,5.61,7.54,5.61h0.1c3.51-0.04,6.57-2.41,7.49-5.8l23.61-86.58l-15.19-4.14l-16.38,60.05l-15.74-52.37
	c-1-3.33-4.06-5.61-7.54-5.61c-3.47,0-6.54,2.28-7.54,5.61l-15.74,52.37l-16.38-60.05l-15.19,4.14l23.61,86.58
	C352.06,284.21,355.15,286.58,358.68,286.6L358.68,286.6z"/>
</svg>
