<?xml version="1.0" encoding="utf-8"?>
<!-- Generator: Adobe Illustrator 23.0.2, SVG Export Plug-In . SVG Version: 6.00 Build 0)  -->
<svg version="1.1" id="Layer_1" xmlns="http://www.w3.org/2000/svg" xmlns:xlink="http://www.w3.org/1999/xlink" x="0px" y="0px"
	 viewBox="0 0 598 598" style="enable-background:new 0 0 598 598;" xml:space="preserve">
<style type="text/css">
	.st0{fill:#FFFFFF;}
	.st1{fill:#F04437;}
	.st2{fill:#D22E2A;}
	.st3{fill:#D32E2A;}
	.st4{fill:#F1F1F1;}
</style>
<circle class="st0" cx="299" cy="299" r="299"/>
<g>
	<path class="st1" d="M107,191.74c0-8.5,0-17,0-25.5c0.75-0.18,0.79-0.88,1.02-1.43c3.4-8.15,9.51-12.17,18.34-12.07
		c3.24,0.04,6.48,0.06,9.72,0.09c1.06,0.86,2.08,1.77,3.18,2.57c51.99,37.9,104,75.76,155.92,113.76c2.93,2.14,4.72,2.18,7.66,0.02
		c40.4-29.62,80.92-59.07,121.39-88.6c12.6-9.2,25.13-18.5,37.69-27.75c3.73-0.03,7.47-0.13,11.2-0.07
		c5.69,0.09,10.26,2.51,13.96,6.81c1.89,2.2,2.4,5.06,3.91,7.42c0,8.25,0,16.5,0,24.75c-1.1,0.56-2.3,0.98-3.29,1.7
		c-13.9,10.15-27.77,20.35-41.65,30.53c-1.04,0.68-2.11,1.32-3.11,2.05c-47.04,34.27-94.08,68.53-141.06,102.88
		c-2.23,1.63-3.62,1.55-5.78-0.03c-41.83-30.59-83.73-61.11-125.61-91.64c-6-4.38-12.03-8.73-18.65-13.53c0,2.26,0,3.71,0,5.17
		c-0.02,72.09-0.04,144.19-0.05,216.28c-9.1,0.03-18.21,0.24-27.3,0.02c-7.22-0.17-12.41-3.93-15.77-10.27
		c-0.56-1.06-0.48-2.47-1.72-3.16c0-71.75,0-143.5,0-215.25c14.16,2.27,28.33,4.54,42.56,6.82c0.12-1.71-0.86-1.97-1.52-2.45
		c-9.35-6.83-18.66-13.73-28.09-20.44C115.72,197.41,111.98,193.64,107,191.74z"/>
	<path class="st2" d="M491,431.74c-1.26,0.67-1.16,2.09-1.72,3.15c-3.36,6.36-8.54,10.11-15.76,10.28c-9.1,0.21-18.2,0-27.31-0.02
		c-0.02-71.85-0.03-143.7-0.06-215.56c0-1.87-0.06-3.75-0.09-5.62c13.88-10.18,27.75-20.38,41.65-30.53
		c0.99-0.72,2.19-1.14,3.29-1.7C491,271.74,491,351.74,491,431.74z"/>
	<path class="st3" d="M107,191.74c4.98,1.9,8.72,5.67,12.95,8.68c9.44,6.71,18.74,13.61,28.09,20.44c0.66,0.48,1.64,0.74,1.52,2.45
		c-14.23-2.28-28.39-4.55-42.56-6.82C107,208.24,107,199.99,107,191.74z"/>
	<path class="st4" d="M446.06,223.97c0.03,1.87,0.09,3.75,0.09,5.62c0.02,71.85,0.04,143.7,0.06,215.56
		c-1.62,0.03-3.25,0.09-4.87,0.09c-94.89,0-189.78,0-284.68,0c-1.62,0-3.25-0.06-4.87-0.09c0.02-72.09,0.04-144.19,0.05-216.28
		c0-1.46,0-2.91,0-5.17c6.63,4.81,12.65,9.16,18.65,13.53c41.88,30.53,83.77,61.04,125.61,91.64c2.16,1.58,3.55,1.66,5.78,0.03
		c46.98-34.35,94.02-68.61,141.06-102.88C443.96,225.29,445.02,224.65,446.06,223.97z"/>
	<path class="st4" d="M136.07,152.82c1.62-0.03,3.25-0.08,4.87-0.08c105.37,0,210.74,0,316.11,0c1.62,0,3.25,0.05,4.87,0.08
		c-12.56,9.25-25.09,18.56-37.69,27.75c-40.47,29.53-80.99,58.98-121.39,88.6c-2.94,2.16-4.73,2.12-7.66-0.02
		c-51.92-37.99-103.94-75.86-155.92-113.76C138.16,154.59,137.13,153.68,136.07,152.82z"/>
</g>
</svg>
