<?xml version="1.0" encoding="utf-8"?>
<!-- Generator: Adobe Illustrator 24.1.3, SVG Export Plug-In . SVG Version: 6.00 Build 0)  -->
<svg version="1.1" id="Layer_1" xmlns="http://www.w3.org/2000/svg" xmlns:xlink="http://www.w3.org/1999/xlink" x="0px" y="0px"
	 viewBox="0 0 402.84 343.72" style="enable-background:new 0 0 402.84 343.72;" xml:space="preserve">
<style type="text/css">
	.st0{fill:#3C1151;}
	.st1{fill:#8CBE22;}
	.st2{fill:#FCBD88;}
	.st3{fill:#C8946A;}
	.st4{fill:#F8F9F8;}
	.st5{fill:#F9FAF8;}
	.st6{fill:#1D5B58;}
	.st7{fill:#6FBFA8;}
	.st8{fill:#ACA573;}
	.st9{fill:#C7946A;}
	.st10{fill:#48986B;}
</style>
<path class="st0" d="M48.36,102.75C56.5,85,67.61,69.27,81.39,55.52c24.95-24.9,54.73-41.12,89.54-47.06
	c47.16-8.06,90.65,1.32,129.72,29.45c22.24,16.02,39.5,36.3,51.77,60.82c0.6,1.19,1.55,2.31,1.29,3.81c-0.76,1.23-2.02,0.89-3.13,1
	c-4.45-0.08-8.94-0.36-12.69,2.77c-2.66,0.58-5.32,1.16-7.98,1.72c-11.85,2.51-23.7,5.02-35.55,7.53
	c-6.81,1.32-13.61,2.65-20.42,3.94c-1.89,0.36-2.39,1.46-1.99,3.22c0.25,1.08,0.39,2.18,0.59,3.27c-1.2,0.22-2.4,0.41-3.59,0.66
	c-3.53,0.74-8.15,0.41-6.25,6.46c0.14,0.46-0.36,1.13-0.56,1.7c-2.63,0.46-5.25,0.12-7.93,1.35c-3.63,1.66-5.86,0.23-8.1-3.23
	c-1.02-1.58-2.14-3.34-4.2-3.94c-0.71-2.18-2.16-3.25-4.49-3.03c-2.43-1.85-5.13-2.89-8.23-2.99c-6.22-0.21-12.07,1.6-18.04,2.95
	c-6.79,1.54-13.98,2.06-17.93,9.1c-1.93-1.3-4.22-1.36-6.39-1.88c-6.76-1.61-13.11-4.98-20.58-2.85c-6.15,1.75-11.43,4.05-14.61,10
	c-0.72,1.34-1.8,4.01-3.56,3.19c-3.22-1.5-6.71-0.33-9.79-1.76c0.13-1.22,0.17-2.46,0.42-3.66c2.23-10.57,2.24-10.57-8.46-12.11
	c-0.48-2.27,2.96-5.6-2.21-6.61c-14.78-2.88-29.52-6-44.27-9.08C71.96,107.8,60.16,105.26,48.36,102.75z"/>
<path class="st0" d="M258.51,333.88c-25.81,9.41-52.31,11.75-79.51,8.37c-24.41-3.03-46.85-11.33-67.61-24.32
	c-18.59-11.63-34.23-26.46-47.12-44.2c-13.05-17.97-22.12-37.79-27.34-59.33c-1.61-6.63-3.11-13.33-3.33-20.22
	c5.13,0.21,10.01,1.79,14.99,2.79c20.58,4.16,41.12,8.49,61.68,12.76c0.98,0.2,1.97,0.46,2.76-0.46
	c10.16,8.78,20.31,17.58,30.49,26.34c12.24,10.54,24.54,21.03,36.76,31.6c10.25,8.88,20.39,17.89,30.64,26.76
	c12.22,10.58,24.4,21.21,36.84,31.53C251.23,328.4,253.86,332.48,258.51,333.88z"/>
<path class="st0" d="M258.51,333.88c-4.65-1.4-7.28-5.48-10.76-8.37c-12.44-10.32-24.62-20.95-36.84-31.53
	c-10.25-8.88-20.39-17.89-30.64-26.76c-12.22-10.58-24.51-21.06-36.76-31.6c-10.18-8.76-20.33-17.56-30.49-26.34
	c0.29-1.59,0.58-3.18,0.87-4.77c2.5,0.54,4.99,1.14,7.51,1.59c1.21,0.21,2.69,1.02,3.46-0.82c3.46,0.03,5.58,2.29,7.66,4.61
	c-0.25,5.65,3.78,10.07,9.33,9.72c2.4-0.15,2.54,0.62,2.54,2.59c-0.01,7.79,4.08,11.37,11.65,10.05c2.2-0.38,2.79-0.21,2.77,2.22
	c-0.05,6.35,4.93,10.19,11.23,8.8c2.48-0.55,3.5-0.24,3.73,2.68c0.5,6.31,6.41,10.78,11.9,8.59c1.78-0.71,3.51-0.99,5.29-1.36
	c0.68,0.51,1.35,1.05,2.05,1.54c5.26,3.75,11.66,2.63,15.31-2.67c2.19-3.18,1.47-6.62,0.6-10.44c1.2,0.73,2.05,1.2,2.85,1.74
	c6.02,4.06,12.06,2.34,15.52-4.07c1.69-3.12,0.61-6.03,0.35-9.06l-0.01,0.01c1.31,0.7,2.62,1.39,3.93,2.09
	c7.07,3.76,14.37-0.1,15.35-8.03c0.22-1.75-1.07-3.36-0.25-5.1c1.33-0.25,2.05,0.81,2.95,1.37c4.1,2.53,9.07,2.08,12.58-1.25
	c3.33-3.16,4.14-8.2,1.81-12.25c-0.56-0.98-1.2-1.87-1.27-3.03c1.04,0.14,1.43-0.78,2.12-1.24c3.5-2.35,6.54-5.82,11.45-4.9
	c1.3,2.69,0.09,7.1,2.91,8.12c2.49,0.9,5.92-0.82,8.93-1.38c0.24-0.05,0.48-0.11,0.72-0.17c0.89,2.18-0.52,6.28,4.2,5.29
	c20.53-4.3,41.03-8.72,61.57-12.94c4.85-0.99,9.64-2.44,14.65-2.57c-0.8,11.53-3.4,22.71-7.19,33.56
	c-17.72,50.78-51.74,85.94-101.81,105.57C259.73,333.6,259.11,333.72,258.51,333.88z"/>
<path class="st1" d="M113.89,204.52c-0.29,1.59-0.58,3.18-0.87,4.77c-0.79,0.92-1.78,0.67-2.76,0.46
	c-20.56-4.27-41.1-8.6-61.68-12.76c-4.98-1.01-9.86-2.58-14.99-2.79c-9.96-2.83-20.2-4.39-30.3-6.54c-2.91-0.62-3.75-1.27-3.06-4.52
	c5.91-27.7,11.62-55.44,17.26-83.19c0.5-2.46,0.94-3.27,3.74-2.64c9,2.03,18.08,3.66,27.14,5.45c11.8,2.51,23.6,5.05,35.41,7.52
	c14.75,3.08,29.49,6.2,44.27,9.08c5.18,1.01,1.73,4.34,2.21,6.61c-0.2,0.59-0.48,1.16-0.6,1.77
	C124.39,153.32,119.14,178.92,113.89,204.52z"/>
<path class="st1" d="M369.3,194.25c-5.01,0.13-9.8,1.57-14.65,2.57c-20.54,4.21-41.05,8.64-61.57,12.94
	c-4.72,0.99-3.32-3.11-4.2-5.29c-2.8-13.67-5.63-27.34-8.41-41.02c-2.45-12.08-4.83-24.18-7.24-36.27c0.27-0.92,0.84-1.71,0.49-2.84
	c-0.85-2.74,0.82-3.85,3.18-4.31c5.47-1.05,10.94-2.07,16.41-3.11c0.72-0.14,0.95-0.71,1.06-1.36c11.85-2.51,23.7-5.02,35.55-7.53
	c2.66-0.56,5.32-1.15,7.98-1.72c4.25-0.83,8.58-1.31,12.69-2.77c1.12-0.11,2.37,0.23,3.13-1c7.15-0.2,13.9-2.68,20.91-3.73
	c1.6-0.24,3.16-0.71,4.75-1.04c5.3-1.13,5.29-1.12,6.35,4.03c5.62,27.35,11.2,54.7,16.95,82.03c0.53,2.53-0.1,3.22-2.39,3.66
	c-8.69,1.69-17.35,3.51-26.01,5.33C372.58,193.17,370.78,193.19,369.3,194.25z"/>
<path class="st2" d="M262.74,204.03c0.07,1.16,0.7,2.05,1.27,3.03c2.32,4.05,1.52,9.1-1.81,12.25c-3.51,3.33-8.48,3.78-12.58,1.25
	c-0.9-0.56-1.62-1.63-2.95-1.37c-0.82,1.74,0.47,3.35,0.25,5.1c-0.98,7.92-8.27,11.78-15.35,8.03c-1.31-0.7-2.62-1.39-3.93-2.09
	c-0.04-0.1-0.06-0.21-0.12-0.29c-0.04-0.04-0.15-0.03-0.23-0.04c0.12,0.11,0.24,0.21,0.35,0.32c0.26,3.03,1.34,5.94-0.35,9.06
	c-3.46,6.41-9.5,8.13-15.52,4.07c-0.8-0.54-1.65-1.01-2.85-1.74c0.87,3.83,1.6,7.26-0.6,10.44c-3.65,5.3-10.05,6.42-15.31,2.67
	c-0.69-0.5-1.36-1.03-2.05-1.54c-0.54-0.74-0.87-1.41-0.14-2.32c1.55-1.94,2.98-3.98,4.46-5.97c2.92-3.91,3.12-7.68,0.59-11.39
	c-2.48-3.64-6.2-4.78-10.86-3.48c-0.86,0.24-1.73,1.12-2.75,0.39c1.18-7.82-4.34-13.77-11.26-11.83c-2.99,0.84-3.48,0.35-3.45-2.6
	c0.04-3.45-1.78-6.21-4.97-7.75c-3.21-1.54-6.26-1.75-9.45,0.6c-2.93,2.15-4.43,5.32-6.68,7.93c-1.32,1.55-2.15,1.6-3.61,0.33
	c-3.18-2.77-6.5-5.38-10.34-7.21c-2.08-2.31-4.2-4.58-7.66-4.61c1.28-6.18,2.58-12.35,3.84-18.54c1.76-8.61,3.43-17.25,5.25-25.85
	c1.36-6.41,2.89-12.78,4.35-19.17c3.08,1.43,6.57,0.26,9.79,1.76c1.76,0.82,2.84-1.84,3.56-3.19c3.18-5.95,8.46-8.24,14.61-10
	c7.47-2.13,13.82,1.23,20.58,2.85c2.16,0.52,4.45,0.58,6.39,1.88c-0.04,0.94-0.65,1.58-1.15,2.3
	c-8.51,12.25-16.95,24.55-25.55,36.73c-1.86,2.63-1.89,4.06,1.22,5.65c10.34,5.28,22.59,2.57,29.33-6.76
	c2.04-2.82,4.11-5.63,6.02-8.54c1.31-1.98,2.35-2.17,4.37-0.64c14.75,11.18,29.55,22.31,44.49,33.25
	C255.4,199.54,258.42,202.82,262.74,204.03z"/>
<path class="st3" d="M262.74,204.03c-4.32-1.21-7.35-4.5-10.79-7.02c-14.94-10.94-29.73-22.06-44.49-33.25
	c-2.02-1.53-3.07-1.34-4.37,0.64c-1.92,2.91-3.98,5.72-6.02,8.54c-6.74,9.33-18.99,12.04-29.33,6.76c-3.11-1.59-3.08-3.02-1.22-5.65
	c8.6-12.18,17.04-24.49,25.55-36.73c0.5-0.72,1.11-1.36,1.15-2.3c3.95-7.04,11.14-7.56,17.93-9.1c5.96-1.35,11.82-3.16,18.04-2.95
	c3.1,0.1,5.79,1.15,8.23,2.99c0.62,2.31,2.17,3.23,4.49,3.03c2.06,0.6,3.17,2.36,4.2,3.94c2.24,3.46,4.47,4.89,8.1,3.23
	c2.68-1.23,5.3-0.89,7.93-1.35c0.53,1.38,1.86,2.24,2.18,3.83c3.96,19.76,7.99,39.5,12,59.25c-4.91-0.93-7.95,2.54-11.45,4.9
	C264.17,203.26,263.78,204.18,262.74,204.03z"/>
<path class="st4" d="M276.31,197.9c-4.01-19.75-8.04-39.49-12-59.25c-0.32-1.59-1.64-2.45-2.18-3.83c0.2-0.57,0.71-1.24,0.56-1.7
	c-1.9-6.05,2.72-5.73,6.25-6.46c1.19-0.25,2.4-0.44,3.59-0.66c0.23,0.39,0.46,0.79,0.69,1.18c2.41,12.09,4.8,24.18,7.24,36.27
	c2.77,13.68,5.6,27.35,8.41,41.02c-0.24,0.06-0.48,0.13-0.72,0.17c-3.01,0.56-6.44,2.28-8.93,1.38
	C276.4,205.01,277.61,200.59,276.31,197.9z"/>
<path class="st5" d="M138.29,141.73c-1.46,6.39-2.99,12.76-4.35,19.17c-1.82,8.6-3.49,17.23-5.25,25.85
	c-1.26,6.18-2.56,12.36-3.84,18.54c-0.78,1.84-2.25,1.04-3.46,0.82c-2.52-0.45-5.01-1.05-7.51-1.59c5.25-25.6,10.5-51.2,15.76-76.79
	c0.12-0.6,0.4-1.18,0.6-1.77c10.7,1.54,10.69,1.54,8.46,12.11C138.46,139.26,138.43,140.51,138.29,141.73z"/>
<path class="st6" d="M273.22,127.18c-0.23-0.39-0.46-0.79-0.69-1.18c-0.19-1.09-0.34-2.19-0.59-3.27c-0.4-1.76,0.1-2.86,1.99-3.22
	c6.81-1.3,13.61-2.63,20.42-3.94c-0.11,0.65-0.34,1.22-1.06,1.36c-5.47,1.04-10.94,2.05-16.41,3.11c-2.36,0.45-4.03,1.57-3.18,4.31
	C274.07,125.47,273.49,126.26,273.22,127.18z"/>
<path class="st7" d="M350.58,103.54c-4.11,1.46-8.44,1.94-12.69,2.77C341.63,103.18,346.13,103.46,350.58,103.54z"/>
<path class="st8" d="M241.9,129c-2.32,0.2-3.87-0.72-4.49-3.03C239.74,125.75,241.19,126.83,241.9,129z"/>
<path class="st9" d="M132.52,209.89c3.85,1.83,7.16,4.45,10.34,7.21c1.45,1.26,2.28,1.21,3.61-0.33c2.24-2.62,3.75-5.78,6.68-7.93
	c3.19-2.35,6.25-2.14,9.45-0.6c3.19,1.54,5.01,4.29,4.97,7.75c-0.04,2.95,0.46,3.44,3.45,2.6c6.93-1.95,12.45,4.01,11.26,11.83
	c1.02,0.73,1.89-0.15,2.75-0.39c4.66-1.31,8.38-0.16,10.86,3.48c2.53,3.72,2.33,7.48-0.59,11.39c-1.49,1.99-2.91,4.03-4.46,5.97
	c-0.73,0.91-0.41,1.58,0.14,2.32c-1.78,0.37-3.51,0.65-5.29,1.36c-5.5,2.19-11.4-2.29-11.9-8.59c-0.23-2.92-1.25-3.23-3.73-2.68
	c-6.3,1.39-11.29-2.46-11.23-8.8c0.02-2.43-0.57-2.6-2.77-2.22c-7.56,1.32-11.66-2.26-11.65-10.05c0-1.97-0.14-2.73-2.54-2.59
	C136.31,219.95,132.28,215.54,132.52,209.89z"/>
<path class="st10" d="M227.64,230.23c-0.12-0.11-0.24-0.21-0.35-0.32c0.08,0.01,0.19-0.01,0.23,0.04
	C227.58,230.02,227.6,230.14,227.64,230.23C227.64,230.23,227.64,230.23,227.64,230.23z"/>
</svg>
