<?xml version="1.0" encoding="utf-8"?>
<!-- Generator: Adobe Illustrator 23.0.2, SVG Export Plug-In . SVG Version: 6.00 Build 0)  -->
<svg version="1.1" id="Layer_1" xmlns="http://www.w3.org/2000/svg" xmlns:xlink="http://www.w3.org/1999/xlink" x="0px" y="0px"
	 viewBox="0 0 1060.64 1060.73" style="enable-background:new 0 0 1060.64 1060.73;" xml:space="preserve">
<style type="text/css">
	.st0{fill:#FFFFFF;}
	.st1{fill:#0084FE;}
	.st2{fill:#F5F5F6;}
</style>
<circle class="st0" cx="530.27" cy="530.37" r="530.37"/>
<path class="st1" d="M279.56,932.45c0-2.53,0-4.31,0-6.09c0-43.49-0.06-86.98,0.1-130.48c0.01-3.96-1.34-6.26-4.36-8.62
	C206.5,733.38,159,665.1,139.76,579.36c-24.19-107.82-1.68-206.53,65.06-294.21c59.14-77.7,138.39-124.92,233.19-146.51
	c40.71-9.27,82.05-12.59,123.62-8.85c134.34,12.07,241.61,71.09,315.5,185.62c32.08,49.72,49.29,104.93,52.52,164.17
	c5.37,98.59-25.86,184.69-90.99,258.18c-61.37,69.24-138.86,110.78-229.5,127.93c-63.68,12.05-126.92,9.37-189.55-7.26
	c-2.86-0.76-4.99-0.37-7.48,1.01c-42.67,23.62-85.38,47.16-128.09,70.71C282.87,930.79,281.68,931.36,279.56,932.45z M274,627.24
	c1.78-0.9,3.59-1.75,5.33-2.71c61.4-33.72,122.81-67.4,184.13-101.26c3.7-2.05,5.72-1.92,8.67,1.27
	c31,33.49,62.18,66.82,93.3,100.19c4.76,5.1,4.76,5.11,9.37,0.2c47.39-50.55,94.79-101.08,142.15-151.66
	c22.77-24.31,45.46-48.69,68.18-73.04c0.34-0.45,0.68-0.9,1.02-1.34c-0.85-0.63-1.35-0.11-1.82,0.54c-1.49,0.71-3.03,1.33-4.47,2.13
	c-60.64,33.72-121.31,67.4-181.85,101.31c-4.35,2.44-6.58,1.86-9.85-1.59c-32.09-33.84-64.41-67.47-96.53-101.29
	c-2.79-2.93-4.16-2.75-6.83,0.1c-59.26,63.4-118.63,126.7-177.95,190.04c-11.26,12.03-22.38,24.18-33.56,36.28
	c-0.46,0.2-0.94,0.49-0.55,1C272.89,627.57,273.57,627.31,274,627.24z"/>
<path class="st2" d="M784.35,408c0.47-0.65,0.97-1.17,1.82-0.54c-0.34,0.45-0.68,0.9-1.02,1.34
	C784.88,408.53,784.62,408.27,784.35,408z"/>
<path class="st2" d="M274,635.81c-0.43,0.07-1.11,0.33-1.24,0.17c-0.39-0.51,0.09-0.8,0.55-1
	C273.54,635.26,273.77,635.53,274,635.81z"/>
</svg>
