<?xml version="1.0" encoding="utf-8"?>
<!-- Generator: Adobe Illustrator 23.0.2, SVG Export Plug-In . SVG Version: 6.00 Build 0)  -->
<svg version="1.1" id="Layer_1" xmlns="http://www.w3.org/2000/svg" xmlns:xlink="http://www.w3.org/1999/xlink" x="0px" y="0px"
	 viewBox="0 0 898 898" style="enable-background:new 0 0 898 898;" xml:space="preserve">
<style type="text/css">
	.st0{fill:#FFFFFF;}
	.st1{fill:#3C1151;}
</style>
<circle class="st0" cx="449" cy="449" r="449"/>
<g>
	<path class="st1" d="M540.27,768.57c-52.16,0.19-91.11-15.17-126.21-41.43c-31.92-23.88-58.15-53.32-81.78-85.12
		c-52.1-70.1-94.76-145.43-124.32-227.83c-11.23-31.3-18.7-63.47-19.85-96.93c-1.8-51.96,15.11-97.09,49.34-135.89
		c14.36-16.28,29.81-31.43,48.64-42.66c7.92-4.73,16.27-8.34,25.61-9.16c8.65-0.76,16.08,1.81,22.24,7.97
		c3.92,3.92,7.06,8.44,9.57,13.34c20.08,39.11,37.86,79.18,50.19,121.49c1.31,4.48,2.3,9.02,2.69,13.69
		c0.82,9.8-3.15,17.05-11.41,22.21c-9.16,5.72-19.43,8.54-29.61,11.6c-8.12,2.44-16.3,4.68-24.43,7.11
		c-16.7,4.99-23.8,15.64-20.66,32.8c4.11,22.52,12.03,43.93,21.17,64.83c25.54,58.41,57.58,112.89,98.99,161.59
		c7.23,8.5,14.84,16.7,23.22,24.1c14.98,13.23,27.76,12.9,42.22-0.81c9.55-9.06,19.07-18.14,28.75-27.06
		c4.29-3.95,9.09-7.26,14.36-9.86c8.4-4.14,16.4-3.46,24.03,1.9c5.21,3.66,9.64,8.18,13.97,12.81
		c28.18,30.16,52.34,63.41,74.88,97.87c2.36,3.61,4.39,7.47,6.18,11.39c5.85,12.81,3.62,24.28-6.09,34.39
		c-7.87,8.19-17.48,13.79-27.81,18.16C594.85,761.46,564.32,768.15,540.27,768.57z"/>
	<path class="st1" d="M702.61,488.23c0.2,18.4-1.42,36.13-4.3,53.75c-1.65,10.12-10.32,17.01-19.73,15.67
		c-10.19-1.46-16.83-9.79-15.32-20.32c2.63-18.34,4.33-36.7,4.01-55.25c-2.02-116.12-75.91-221.03-185.48-263.08
		c-7.57-2.9-13.22-7.16-14.35-15.56c-1.84-13.69,11.19-23.49,24.65-18.5c32.41,11.99,62.24,28.68,89,50.53
		c67.24,54.9,106.7,125.56,118.95,211.43C702.03,460.76,702.84,474.75,702.61,488.23z"/>
	<path class="st1" d="M632.72,488.56c-0.01,11.68-0.73,23.31-2.37,34.88c-1.44,10.18-9.7,17.01-19.43,15.95
		c-9.96-1.08-16.92-9.2-15.72-19.48c2.27-19.45,3.13-38.87,0.34-58.31c-10.46-72.84-47.6-127.68-111.26-164.55
		c-7.34-4.25-15.1-7.7-22.91-11.01c-10.47-4.44-14.96-14.35-10.9-23.87c3.96-9.29,14.21-13.32,24.32-8.9
		c83.38,36.38,134.43,99.24,153.5,188.11c1.36,6.34,2.12,12.81,2.94,19.25C632.42,469.9,632.67,479.23,632.72,488.56z"/>
	<path class="st1" d="M562.1,488.42c0,5.5,0.45,11.03-0.1,16.48c-1.05,10.48-9.53,17.18-19.69,16.15
		c-9.62-0.98-16.4-9.61-15.53-19.8c5.23-61.69-27.78-119.52-83.79-146.81c-8.8-4.29-13.03-10.78-12.15-18.67
		c1.39-12.55,13.84-19.52,25.64-14.12c18.8,8.61,35.51,20.31,50.33,34.71C542.56,391.11,562.65,438.65,562.1,488.42z"/>
</g>
</svg>
