<?xml version="1.0" encoding="utf-8"?>
<!-- Generator: Adobe Illustrator 23.0.2, SVG Export Plug-In . SVG Version: 6.00 Build 0)  -->
<svg version="1.1" id="Layer_1" xmlns="http://www.w3.org/2000/svg" xmlns:xlink="http://www.w3.org/1999/xlink" x="0px" y="0px"
	 viewBox="0 0 635 635" style="enable-background:new 0 0 635 635;" xml:space="preserve">
<style type="text/css">
	.st0{fill:#FFFFFF;}
	.st1{fill:#FEFEFE;stroke:#000000;stroke-miterlimit:10;}
	.st2{fill:#25D366;}
	.st3{fill:#FEFEFE;}
</style>
<path class="st0" d="M635,317.49C635,493.43,492.81,635.07,316.26,635C141.58,634.94-0.07,492.28,0,316.49
	C0.07,141.3,142.76-0.15,319.25,0C493.12,0.15,635.01,142.82,635,317.49z M164.63,470.44c27.01-8.61,52.96-16.84,78.87-25.19
	c2.86-0.92,5.15-0.84,7.95,0.59c27.9,14.29,57.46,19.21,88.56,15.35c81.03-10.05,138.81-84.09,129.17-165.51
	c-9.81-82.83-88.51-145.6-177.8-128.15C190.22,187.29,139.92,297.1,189.87,387.21c1.33,2.4,1.53,4.42,0.59,7.02
	c-3.14,8.75-6.03,17.59-9.01,26.4C175.95,436.93,170.45,453.23,164.63,470.44z"/>
<path class="st1" d="M104.87,530.25c8.09-23.94,15.74-46.62,23.4-69.29c4.14-12.25,8.15-24.55,12.53-36.73
	c1.3-3.61,1.02-6.42-0.83-9.76c-69.49-125.37,0.49-278.13,141.22-305.63c124.22-24.27,233.7,63.04,247.35,178.28
	c13.42,113.27-66.97,216.28-179.69,230.26c-43.26,5.37-84.38-1.47-123.2-21.36c-3.9-2-7.07-2.11-11.06-0.82
	C178.54,506.82,142.44,518.28,104.87,530.25z M157.48,478.78c21.5-6.9,41.66-13.31,61.78-19.87c3.72-1.21,6.67-1.06,10.25,1.13
	c32.59,19.92,67.96,28.39,106.13,25.37c89.53-7.08,159.25-80.58,161.02-169.94c2.17-109.35-98.03-194.68-205.51-175
	C165.16,163.54,105.58,303.62,176.62,410c2.28,3.42,2.24,6.02,1.03,9.51C171.01,438.71,164.54,457.97,157.48,478.78z"/>
<path class="st2" d="M157.48,478.78c7.06-20.82,13.53-40.08,20.16-59.27c1.21-3.5,1.25-6.1-1.03-9.51
	c-71.04-106.38-11.46-246.46,114.53-269.52c107.48-19.67,207.68,65.65,205.51,175c-1.77,89.36-71.49,162.85-161.02,169.94
	c-38.17,3.02-73.54-5.44-106.13-25.37c-3.58-2.19-6.53-2.34-10.25-1.13C199.14,465.48,178.98,471.89,157.48,478.78z M257.07,218.08
	c-9.55-1.94-16.24,1.57-22.08,8.18c-17.86,20.2-20.73,43.35-9.19,66.51c27.93,56.03,69.7,96.77,132.05,113.3
	c11.67,3.09,22.86,4.51,34.76,1.41c20.73-5.39,33.27-19.43,34.95-40.45c0.32-4,0.36-7.94-4.16-10.07
	c-14-6.59-27.96-13.28-41.98-19.84c-4.64-2.17-8.27-0.92-11.43,3.28c-4.73,6.28-9.96,12.19-14.91,18.31
	c-3.03,3.74-6.38,4.52-11.01,2.67c-28.69-11.45-51.23-30.2-67.67-56.32c-5.61-8.91-5.56-8.9,1.26-16.62
	c2.76-3.12,5.43-6.33,7.91-9.67c4.02-5.42,4.84-10.97,1.76-17.48c-4.85-10.21-9.27-20.66-13.23-31.25
	C270.93,221.57,266.84,215.38,257.07,218.08z"/>
<path class="st3" d="M257.07,218.08c9.77-2.7,13.86,3.49,17.03,11.97c3.96,10.59,8.38,21.04,13.23,31.25
	c3.09,6.51,2.26,12.06-1.76,17.48c-2.48,3.34-5.16,6.55-7.91,9.67c-6.82,7.72-6.87,7.71-1.26,16.62
	c16.44,26.12,38.98,44.87,67.67,56.32c4.63,1.84,7.98,1.07,11.01-2.67c4.95-6.12,10.18-12.03,14.91-18.31
	c3.16-4.2,6.79-5.45,11.43-3.28c14.02,6.55,27.97,13.25,41.98,19.84c4.52,2.13,4.48,6.06,4.16,10.07
	c-1.68,21.02-14.23,35.06-34.95,40.45c-11.9,3.1-23.09,1.68-34.76-1.41c-62.35-16.52-104.12-57.27-132.05-113.3
	c-11.54-23.16-8.67-46.3,9.19-66.51C240.82,219.66,247.52,216.14,257.07,218.08z"/>
</svg>
