<?xml version="1.0" encoding="utf-8"?>
<!-- Generator: Adobe Illustrator 24.0.1, SVG Export Plug-In . SVG Version: 6.00 Build 0)  -->
<svg version="1.1" id="Layer_1" xmlns="http://www.w3.org/2000/svg" xmlns:xlink="http://www.w3.org/1999/xlink" x="0px" y="0px"
	 viewBox="0 0 1848.51 200.17" style="enable-background:new 0 0 1848.51 200.17;" xml:space="preserve">
<style type="text/css">
	.st0{fill:#3F1453;}
	.st1{fill:#8DBF24;}
</style>
<path class="st0" d="M293.08,150.44c-1.51,0.61-3.12,0.31-4.7,0.31c-4,0.01-8,0.01-11.99-0.13c-1.25-0.05-2.51-0.48-3.71-0.89
	c-5.11-1.7-7.75-5.39-8.27-10.65c-0.14-1.43-0.07-2.87-0.07-4.31c0-17.9-0.02-35.81,0.01-53.71c0-2.73-0.23-5.42-0.83-8.08
	c-1.47-6.6-5.53-10.69-12.07-12.17c-4.57-1.04-9.26-1.04-13.82-0.04c-6.3,1.4-10.44,5.21-11.84,11.74
	c-0.51,2.37-0.64,4.73-0.64,7.14c0.01,21.74,0.02,43.48,0,65.22c0,6.01,0.65,5.47-5.28,5.49c-6.4,0.01-12.79,0.01-19.19,0
	c-1.12,0-2.24-0.01-3.35-0.08c-0.7-0.04-1.21-0.48-1.25-1.19c-0.08-1.43-0.1-2.87-0.1-4.31c-0.01-21.74-0.02-43.48,0.02-65.22
	c0-2.58-0.22-5.12-0.83-7.6c-1.41-5.75-5.01-9.58-10.68-11.25c-5.49-1.62-11.07-1.6-16.56,0.02c-5.31,1.57-8.7,5.12-10.17,10.51
	c-0.9,3.29-0.89,6.64-0.89,9.99c-0.01,21.1,0,42.2,0,63.3c0,1.28,0.03,2.56-0.02,3.84c-0.06,1.52-0.44,1.95-2.07,1.95
	c-8.48,0.03-16.95,0.02-25.43,0c-1.09,0-1.82-0.53-1.85-1.72c-0.03-0.96-0.03-1.92-0.03-2.88c0-21.1-0.04-42.2,0.03-63.3
	c0.02-5.27,0.5-10.53,1.68-15.69c3.72-16.34,13.53-26.85,29.97-30.7c11.69-2.74,23.47-2.6,35.18-0.01
	c5.17,1.14,10.08,3.13,14.42,6.25c1.28,0.92,2.32,1.25,3.85,0.23c8.11-5.38,17.26-7.3,26.81-7.83c8.02-0.44,15.98-0.07,23.8,1.95
	c8.09,2.09,15.14,5.94,20.57,12.44c4.52,5.41,6.99,11.76,8.46,18.56c0.92,4.23,1.31,8.53,1.32,12.85c0.02,22.22,0.01,44.44,0,66.66
	C293.52,148.23,293.7,149.37,293.08,150.44z"/>
<path class="st1" d="M1057.3,82.42c0-20.78,0-41.56,0-62.34c0-2.24,0.07-4.45,0.59-6.66c1.57-6.68,6.33-9.73,12.23-10.36
	c0.95-0.1,1.92-0.06,2.88-0.06c15.35,0,30.7-0.03,46.05,0.01c7.88,0.02,15.58,1.33,23.09,3.74c15.72,5.04,26.71,15.25,33.1,30.43
	c3.25,7.71,4.94,15.8,5.94,24.1c0.78,6.53,0.91,13.08,0.72,19.62c-0.34,11.74-2.35,23.19-7.13,34.01
	c-6.72,15.21-17.5,26.15-33.49,31.55c-5.03,1.7-10.24,2.56-15.48,3.09c-5.08,0.52-10.2,0.77-15.31,0.8
	c-16.31,0.1-32.62,0.05-48.93,0.03c-4.22,0-4.25-0.04-4.25-4.19C1057.29,124.93,1057.3,103.67,1057.3,82.42z M1087.06,76.01
	c0,14.06,0,28.12,0,42.19c0,1.28-0.01,2.56,0.05,3.83c0.04,0.88,0.47,1.51,1.42,1.6c0.63,0.06,1.27,0.09,1.91,0.09
	c7.03,0.01,14.07,0.17,21.1-0.05c5.58-0.18,11.15-0.68,16.53-2.47c8-2.66,13.86-7.68,17.65-15.21c2.7-5.37,3.88-11.13,4.65-17
	c1.12-8.6,0.97-17.2-0.08-25.78c-0.82-6.7-2.38-13.2-5.74-19.14c-3.43-6.07-8.34-10.46-14.92-12.85c-3.93-1.43-7.98-2.29-12.18-2.29
	c-8.95-0.01-17.91-0.01-26.86,0c-0.64,0-1.28,0.01-1.92,0.06c-0.9,0.08-1.48,0.56-1.53,1.49c-0.06,1.27-0.08,2.55-0.08,3.83
	C1087.06,48.21,1087.06,62.11,1087.06,76.01z"/>
<path class="st1" d="M1317.8,137.38c-1.64,0.94-2.52,2.49-3.66,3.69c-5.01,5.25-11.01,8.7-18.11,10.17
	c-9.6,1.98-19.1,1.45-28.33-1.87c-8.12-2.91-14.31-8.27-18.74-15.67c-3.92-6.54-6.09-13.7-7.35-21.14
	c-1.69-9.98-1.65-20.05-0.94-30.11c0.39-5.58,1.57-11.05,3.43-16.37c5.28-15.07,15.77-24.38,31.11-28.52
	c8.78-2.37,17.71-2.33,26.66-1.94c6.92,0.3,13.58,1.86,19.98,4.57c10.28,4.34,17.34,11.79,21.33,22.13
	c2.55,6.62,3.8,13.54,3.82,20.62c0.07,24.45,0.05,48.91,0.01,73.37c-0.01,5.64-1.11,11.11-3.26,16.34
	c-3.16,7.69-8.51,13.41-15.75,17.44c-6.52,3.63-13.6,5.48-20.9,6.63c-6.02,0.95-12.08,1.17-18.17,1.05
	c-6.13-0.12-12.08-1.24-17.82-3.32c-9.37-3.39-16.56-9.49-21.72-17.99c-2.33-3.84-4.09-7.95-5.4-12.25
	c-0.77-2.52-0.56-2.83,1.9-2.92c0.16-0.01,0.32,0,0.48,0c8.64,0,17.27,0.04,25.91-0.03c1.81-0.02,2.98,0.43,3.66,2.25
	c2.13,5.74,6.77,8.25,12.42,9.25c3.63,0.64,7.33,0.66,11,0.3c8.69-0.84,14.47-5.37,17.22-13.71
	C1318.28,154.15,1318.93,143.96,1317.8,137.38z M1270.04,93.51c0.09,1.74,0.07,4.3,0.37,6.83c0.6,5.08,1.58,10.08,3.86,14.73
	c3.18,6.49,8.29,10.39,15.46,11.46c1.72,0.26,3.5,0.26,5.25,0.21c8.36-0.24,14.62-3.99,18.54-11.42c0.74-1.4,1.36-2.89,1.87-4.39
	c2.82-8.29,3.44-16.84,2.57-25.49c-0.49-4.92-1.48-9.75-3.72-14.26c-3.14-6.32-8.16-10.11-15.07-11.29
	c-2.02-0.35-4.13-0.33-6.19-0.29c-11.65,0.21-17.52,7.23-19.94,14.32c-0.67,1.95-1.24,3.95-1.73,5.95
	C1270.28,84.08,1270.11,88.39,1270.04,93.51z"/>
<path class="st0" d="M111.61,3.16c0.21,0.54,0.42,0.84,0.42,1.14c0.04,7.51,0.08,15.02,0.07,22.54c0,1.59-0.37,1.85-2.04,1.93
	c-0.48,0.02-0.96,0.01-1.44,0.01c-0.96,0-1.92,0-2.88,0c-21.75,0-43.5-0.01-65.25,0c-5.38,0-4.75-0.51-4.77,4.96
	c-0.03,7.03-0.01,14.07-0.01,21.1c0,0.8,0.02,1.6,0,2.4c-0.05,2.91,0.57,2.86,3.11,2.87c1.12,0,2.24,0,3.36,0
	c15.03,0,30.07,0,45.1,0c1.28,0,2.56,0.02,3.84,0.05c0.93,0.02,1.54,0.5,1.54,1.44c0.01,4.15,0.21,8.33-0.13,12.46
	c-0.44,5.33-3.97,9.11-9.18,10.41c-2.18,0.54-4.41,0.67-6.66,0.66c-11.51-0.04-23.03-0.02-34.55-0.02c-0.96,0-1.92-0.01-2.88,0
	c-3.49,0.05-3.52,0.06-3.54,3.35c-0.03,4.96-0.01,9.91-0.01,14.87c0,5.91-0.01,11.83,0.03,17.74c0.01,1.65,0.33,1.94,1.95,2
	c1.28,0.05,2.56,0.02,3.84,0.02c21.59,0,43.18,0,64.77,0c1.75,0,3.5,0,5.01,0c0.79,0.91,0.81,1.71,0.81,2.51
	c0,7.35,0.01,14.71,0,22.06c0,0.48-0.02,0.96-0.1,1.43c-0.11,0.7-0.57,1.14-1.27,1.18c-1.12,0.07-2.24,0.07-3.35,0.07
	c-32.31,0-64.61,0-96.92,0c-0.8,0-1.6,0.02-2.4-0.02c-1.86-0.08-2.07-0.31-2.14-2.36c-0.03-0.96-0.01-1.92-0.01-2.88
	c0-41.72,0-83.45,0-125.17c0-1.44-0.03-2.88,0.09-4.31C6.56,9.44,9.82,4.24,18.25,3.11c1.26-0.17,2.55-0.1,3.83-0.1
	c28.47,0,56.94-0.01,85.4,0C108.9,3.01,110.3,3.11,111.61,3.16z"/>
<path class="st0" d="M339.97,137.01c0,1.57,0,3.13,0,4.7c0,11.99-0.02,23.98,0.02,35.97c0.01,2.41-0.21,4.79-0.63,7.15
	c-0.86,4.86-3.6,8.09-8.47,9.33c-1.23,0.31-2.5,0.63-3.76,0.66c-4.8,0.09-9.59,0.09-14.39,0.06c-1.51-0.01-1.87-0.46-1.95-2.07
	c-0.04-0.8-0.02-1.6-0.02-2.4c0-34.37-0.05-68.74,0.04-103.11c0.02-7.53,1.1-14.96,3.52-22.15c4.71-14.03,14-23.47,28.27-27.59
	c14.13-4.08,28.4-4.2,42.58-0.18c13.34,3.78,22.51,12.32,27.68,25.14c2.29,5.66,3.57,11.58,4.25,17.64
	c1.23,10.87,0.83,21.68-1.03,32.44c-0.98,5.69-2.64,11.17-5.14,16.4c-6.24,13-16.74,20.2-30.75,22.56
	c-4.73,0.79-9.5,0.99-14.32,0.36c-9.14-1.2-16.68-5.21-22.63-12.23c-0.81-0.95-1.59-1.92-2.39-2.88
	C340.55,136.88,340.26,136.94,339.97,137.01z M339.97,92.4c0,0.17-0.05,1.45,0.01,2.72c0.3,6.91,1.35,13.67,4.6,19.89
	c3.62,6.92,9.38,10.71,17.18,11.25c2.39,0.17,4.78,0.08,7.16-0.32c5.87-0.98,10.34-4.01,13.52-8.98c1.65-2.57,2.88-5.36,3.63-8.3
	c1.78-7.01,2.57-14.13,1.87-21.36c-0.5-5.25-1.31-10.44-3.54-15.31c-2.74-5.99-7.08-10.18-13.57-11.85
	c-4.72-1.21-9.49-1.25-14.21-0.05c-5.2,1.32-9.16,4.35-11.88,9c-1.63,2.78-2.7,5.77-3.45,8.89
	C340.24,82.36,339.95,86.81,339.97,92.4z"/>
<path class="st0" d="M609.09,115.56c0.04,0.32,0.17,0.66,0.1,0.94c-3.4,13.05-9.99,23.79-22.2,30.42
	c-5.85,3.17-12.2,4.81-18.75,5.46c-9.96,0.98-19.78,0.22-29.31-3.17c-12.52-4.45-21.06-12.96-26.01-25.18
	c-2.78-6.87-4.21-14.06-4.77-21.43c-0.7-9.26-0.59-18.49,1.01-27.67c1-5.69,2.65-11.17,5.2-16.38
	c5.12-10.45,13.21-17.56,24.23-21.13c13.43-4.36,27.07-4.54,40.62-0.72c12.25,3.45,20.9,11.29,26.18,22.88
	c2.74,6.02,4.34,12.36,5.22,18.86c0.92,6.81,1.21,13.68,0.97,20.56c-0.06,1.55-0.47,1.95-2.03,2.02c-1.28,0.06-2.56,0.03-3.84,0.03
	c-21.27,0-42.55,0-63.82,0.01c-4.37,0-4.46,0.04-3.88,4.18c0.33,2.36,0.86,4.72,1.54,7c3.37,11.33,12.04,15.9,23.13,14.85
	c3.89-0.37,7.44-1.75,10.7-3.91c2.01-1.33,3.87-2.82,5.6-4.5c2.01-1.95,4.4-3.36,7.21-3.44c7.5-0.2,15.01-0.38,22.51,0.1
	C608.83,115.35,608.96,115.48,609.09,115.56z M559.17,80.55c0,0,0,0.01,0,0.01c0.96,0,1.92,0,2.88,0c5.27,0,10.55,0.02,15.82-0.01
	c2.43-0.02,2.68-0.37,2.35-2.87c-0.39-2.87-1.27-5.6-2.43-8.24c-2.86-6.53-7.8-10.44-14.88-11.35c-8.28-1.06-17.01,1.38-21.72,11.27
	c-1.39,2.91-2.18,6-2.86,9.12c-0.34,1.56,0.04,2.05,1.66,2.05C546.39,80.57,552.78,80.55,559.17,80.55z"/>
<path class="st1" d="M1693.68,101.03c-10.55,0-21.1,0-31.65,0c-1.28,0-2.56,0.01-3.83,0.11c-0.7,0.05-1.1,0.59-1.23,1.26
	c-0.06,0.31-0.03,0.64,0,0.96c0.37,4.83,1.49,9.44,3.75,13.76c2.61,4.98,6.69,8.17,12.1,9.38c6.79,1.52,13.34,0.78,19.33-3.11
	c2.29-1.48,4.36-3.22,6.36-5.06c2.19-2.03,4.8-3.17,7.81-3.19c6.71-0.04,13.43-0.03,20.14,0c1.6,0.01,2.11,0.61,1.72,2.03
	c-4.5,16.34-13.87,28.38-30.67,33.18c-13.4,3.83-26.85,3.34-40.04-1.39c-12.15-4.37-20.43-12.79-25.29-24.63
	c-2.93-7.15-4.44-14.63-4.93-22.34c-0.43-6.69-0.44-13.38,0.1-20.05c0.66-8.18,2.57-16.04,6.19-23.47
	c5.27-10.82,13.76-17.94,25.15-21.41c12.97-3.95,26.12-4.14,39.22-0.51c12.65,3.51,21.48,11.51,26.83,23.44
	c2.7,6.03,4.27,12.39,5.07,18.9c0.8,6.49,1.23,13.03,0.94,19.59c-0.1,2.14-0.41,2.52-2.55,2.53c-8.31,0.04-16.62,0.02-24.93,0.02
	C1700.08,101.03,1696.88,101.03,1693.68,101.03z M1678.52,80.55c0,0,0,0.01,0,0.01c5.27,0,10.53,0,15.8,0
	c1.12,0,2.24,0.02,3.35-0.04c1.49-0.08,1.88-0.58,1.75-2.17c-0.24-3.06-1.22-5.93-2.4-8.72c-2.84-6.75-7.93-10.74-15.19-11.59
	c-8.63-1.01-17.07,1.8-21.57,11.49c-1.28,2.77-2.09,5.68-2.71,8.65c-0.39,1.85-0.04,2.35,1.82,2.36
	C1665.75,80.57,1672.13,80.55,1678.52,80.55z"/>
<path class="st0" d="M870.68,112.38c0.28,1.58,0.42,2.53,0.63,3.46c1.34,6,5.01,9.93,10.83,11.68c7.02,2.11,14.17,2.18,21.33,0.76
	c1.39-0.28,2.74-0.87,4.03-1.49c1.92-0.93,3.4-2.36,4.21-4.39c1.19-2.99,0.96-6.09-1.58-8.31c-1.83-1.6-3.88-2.79-6.09-3.74
	c-5.16-2.23-10.58-3.56-16.05-4.7c-4.53-0.95-9.1-1.77-13.57-2.94c-6.21-1.62-12.14-3.97-17.41-7.76c-5.78-4.16-10-9.5-11.57-16.51
	c-3.27-14.65,1.69-31.1,18.65-38.99c6.59-3.07,13.58-4.62,20.83-5.05c9.64-0.57,19.17-0.08,28.38,3.16
	c5.95,2.09,11.31,5.11,15.74,9.72c6.16,6.42,8.9,14.24,9.78,22.88c0.11,1.1-0.51,1.75-1.74,1.76c-5.76,0.03-11.51,0.06-17.27-0.03
	c-1.42-0.02-2.85-0.39-4.24-0.73c-3.25-0.79-5.95-2.44-7.35-5.6c-2.26-5.07-6.41-7.16-11.62-8.06c-4.66-0.81-9.22-0.57-13.82,0.2
	c-1.91,0.32-3.72,0.97-5.36,1.99c-3.83,2.39-4.58,6.7-1.85,10.33c1.38,1.84,3.29,3,5.28,4.03c3.57,1.85,7.39,2.97,11.3,3.83
	c7.64,1.68,15.31,3.21,22.78,5.61c4.73,1.51,9.31,3.36,13.68,5.72c8.08,4.37,12.36,11.28,13.61,20.23
	c0.72,5.12,0.28,10.18-0.95,15.18c-2.65,10.75-9.55,17.83-19.44,22.23c-5.88,2.62-12.11,4.06-18.49,4.76
	c-8.12,0.89-16.27,1.05-24.39,0.09c-9.35-1.11-18.06-3.83-25.47-10.03c-5.89-4.93-9.53-11.11-11.13-18.52
	c-0.6-2.8-1.19-5.63-1.01-8.55c0.12-1.93,0.27-2.18,2.29-2.19c7.68-0.03,15.35-0.02,23.03-0.02
	C867.92,112.38,869.18,112.38,870.68,112.38z"/>
<path class="st0" d="M622.79,112.38c1.9,0,3.96,0,6.01,0c6.88,0,13.76,0.03,20.63-0.02c1.37-0.01,2.08,0.54,2.3,1.84
	c0.13,0.79,0.27,1.58,0.47,2.35c1.27,5,4.27,8.48,9.09,10.37c5.79,2.27,11.81,2.54,17.92,2.06c2.88-0.22,5.71-0.64,8.37-1.87
	c2.96-1.37,4.91-3.55,5.46-6.81c0.37-2.17-0.16-4.11-1.73-5.73c-1.82-1.88-4.02-3.13-6.38-4.16c-5.15-2.24-10.57-3.58-16.04-4.75
	c-4.53-0.96-9.09-1.81-13.58-2.93c-5.13-1.28-10.06-3.15-14.63-5.86c-12.8-7.59-17.22-18.92-14.91-33
	c1.92-11.66,8.75-19.61,19.3-24.55c6.75-3.16,13.94-4.64,21.34-5.02c8.33-0.42,16.63-0.06,24.71,2.3
	c7.32,2.15,13.94,5.5,19.17,11.26c5.61,6.17,8.33,13.52,9.11,21.69c0.18,1.87-0.26,2.34-2.08,2.36c-5.44,0.04-10.88,0.08-16.31-0.02
	c-1.74-0.03-3.5-0.4-5.19-0.85c-3.06-0.81-5.65-2.5-6.93-5.46c-2.23-5.15-6.41-7.16-11.59-8.09c-4.65-0.84-9.23-0.58-13.82,0.19
	c-1.91,0.32-3.71,0.96-5.36,2c-3.9,2.47-4.58,7.19-1.53,10.73c1.49,1.73,3.4,2.86,5.42,3.87c4.63,2.31,9.62,3.39,14.62,4.42
	c6.42,1.33,12.78,2.82,19.04,4.78c4.43,1.39,8.68,3.19,12.84,5.27c8.22,4.12,12.86,10.92,14.31,19.78
	c1.24,7.55,0.26,14.98-2.94,22.01c-3.57,7.82-9.75,12.92-17.45,16.32c-5.89,2.6-12.13,4.02-18.51,4.72
	c-8.12,0.89-16.27,1.04-24.4,0.07c-9.36-1.11-18.07-3.86-25.44-10.11c-8.71-7.39-12.15-16.93-11.86-28.07
	C622.24,113.22,622.5,112.95,622.79,112.38z"/>
<path class="st1" d="M1755.82,112.39c4.32,0,8.63,0.01,12.95-0.01c1.13-0.01,1.8,0.53,2.05,1.58c0.22,0.93,0.34,1.89,0.58,2.81
	c1.23,4.6,4.01,7.95,8.37,9.87c2.19,0.97,4.49,1.69,6.89,1.97c4.78,0.56,9.56,0.68,14.34,0.07c2.4-0.31,4.69-1,6.8-2.18
	c2.54-1.42,3.99-3.61,4.33-6.52c0.25-2.19-0.3-4.08-1.91-5.67c-1.86-1.83-4.1-3.02-6.46-4.03c-5.16-2.21-10.59-3.53-16.06-4.68
	c-4.53-0.95-9.09-1.79-13.57-2.95c-6.22-1.61-12.14-4-17.4-7.8c-6.5-4.7-10.92-10.88-11.98-18.9c-1.93-14.66,3.03-28.91,19.27-36.59
	c4.66-2.21,9.59-3.61,14.65-4.37c10.7-1.6,21.35-1.3,31.82,1.67c7.35,2.08,13.89,5.59,19.1,11.37c5.47,6.06,8.11,13.26,8.93,21.25
	c0.02,0.16,0.03,0.32,0.03,0.48c0.01,1.51-0.45,2.04-1.89,2.14c-0.48,0.03-0.96,0.02-1.44,0.02c-4.64,0-9.27-0.03-13.91,0.02
	c-1.94,0.02-3.82-0.32-5.69-0.74c-3.46-0.79-6.24-2.6-7.71-5.88c-2.21-4.93-6.29-6.85-11.27-7.8c-4.65-0.89-9.22-0.59-13.81,0.13
	c-1.91,0.3-3.73,0.9-5.38,1.93c-4.16,2.6-4.8,7.4-1.49,11.05c1.76,1.95,4.02,3.13,6.36,4.18c4.4,1.98,9.1,2.95,13.78,3.94
	c8.13,1.72,16.24,3.51,23.97,6.61c2.81,1.13,5.58,2.4,8.26,3.79c8.36,4.33,12.61,11.54,13.83,20.61c0.69,5.09,0.24,10.21-1.1,15.2
	c-2.81,10.46-9.56,17.5-19.3,21.83c-5.88,2.62-12.1,4.07-18.48,4.78c-8.12,0.91-16.25,1.1-24.38,0.11
	c-8.84-1.08-17.16-3.49-24.38-9.05c-7.37-5.67-11.5-13.12-12.87-22.2c-0.29-1.89-0.39-3.81-0.45-5.73
	c-0.06-1.93,0.31-2.32,2.14-2.33c4.16-0.04,8.31-0.01,12.47-0.01C1755.82,112.38,1755.82,112.39,1755.82,112.39z"/>
<path class="st0" d="M830.43,85.81c0,5.28,0.13,10.56-0.04,15.83c-0.17,5.58-0.31,11.17-1.54,16.66
	c-2.84,12.65-9.92,21.94-21.62,27.66c-5.51,2.69-11.33,4.37-17.35,5.33c-6.64,1.06-13.32,1.78-20.06,1.23
	c-4.63-0.38-9.2-1.14-13.59-2.73c-13.14-4.78-20.53-14.19-22.29-27.98c-0.68-5.27-0.28-10.55,1.07-15.7
	c2.56-9.81,8.82-16.45,17.92-20.58c7.06-3.2,14.57-4.69,22.18-5.8c4.58-0.66,9.19-1.21,13.76-1.95c2.85-0.46,5.56-1.46,8.07-2.93
	c2.8-1.64,4.79-3.98,4.68-7.3c-0.12-3.47-2.19-5.93-5.33-7.38c-1.3-0.6-2.67-1.12-4.06-1.42c-5.7-1.21-11.43-1.31-17.13-0.08
	c-3.55,0.77-6.7,2.24-8.42,5.7c-0.59,1.19-1.47,1.54-2.69,1.54c-8.16-0.02-16.32,0.01-24.47-0.02c-1.86-0.01-2.3-0.56-1.94-2.36
	c2.35-11.78,8.69-20.43,19.9-25.22c5.49-2.35,11.26-3.54,17.21-3.88c10.26-0.6,20.47-0.41,30.48,2.17
	c6.42,1.65,12.35,4.29,17.17,9.08c4.26,4.24,6.64,9.36,7.42,15.22c0.44,3.31,0.58,6.68,0.65,10.03
	C830.51,75.9,830.43,80.85,830.43,85.81z M801.9,93.11c-8.92,3.55-17.59,5.58-26.26,7.61c-2.35,0.55-4.53,1.51-6.57,2.8
	c-5.63,3.57-7.9,9.24-6.3,15.68c1.35,5.45,5.13,8.89,10.72,9.4c2.52,0.23,5.13,0.26,7.63-0.08c13.09-1.73,19.67-10.12,20.71-21.38
	C802.25,102.72,801.9,98.23,801.9,93.11z"/>
<path class="st1" d="M1563.76,88.11c-0.03,8.31,0.27,16.62-0.7,24.9c-0.99,8.42-3.76,16.12-9.23,22.76
	c-3.53,4.29-7.91,7.43-12.77,9.94c-6.03,3.11-12.52,4.82-19.19,5.8c-4.1,0.61-8.26,0.95-12.4,1.12c-6.76,0.28-13.41-0.54-19.82-2.81
	c-13.75-4.87-21.81-15.73-22.57-30.28c-0.21-4.01,0.04-7.97,0.88-11.91c1.84-8.58,6.4-15.2,13.91-19.8
	c6.1-3.74,12.84-5.7,19.77-6.99c4.86-0.91,9.8-1.42,14.7-2.07c3.17-0.42,6.32-0.97,9.37-1.95c1.99-0.64,3.9-1.47,5.59-2.71
	c4.71-3.46,4.7-9.48,0.01-12.97c-1.7-1.27-3.69-1.96-5.71-2.39c-5.69-1.2-11.42-1.36-17.13-0.1c-3.54,0.78-6.72,2.18-8.45,5.66
	c-0.57,1.14-1.4,1.64-2.65,1.63c-8.16-0.02-16.31,0.01-24.47-0.03c-1.93-0.01-2.41-0.71-1.96-2.84
	c2.19-10.42,7.59-18.52,17.18-23.55c4.58-2.4,9.49-3.92,14.57-4.58c12.14-1.58,24.25-1.28,36.17,1.74
	c6.27,1.59,11.99,4.28,16.71,8.93c4.03,3.98,6.37,8.77,7.35,14.23c0.56,3.14,0.88,6.32,0.85,9.54
	C1563.72,75.64,1563.76,81.87,1563.76,88.11z M1535.16,93.02c-9.06,3.83-17.95,5.65-26.74,7.81c-2.18,0.54-4.19,1.5-6.09,2.69
	c-6.08,3.82-7.79,9.69-6.1,16.15c1.37,5.24,5.15,8.43,10.58,8.92c2.52,0.23,5.13,0.27,7.63-0.07c12.15-1.67,19.26-8.9,20.63-20.9
	C1535.6,103.06,1535.16,98.41,1535.16,93.02z"/>
<path class="st1" d="M1410.69,68.27c0-19.81,0-39.62,0-59.43c0-1.44,0.02-2.87,0.09-4.31c0.05-0.94,0.66-1.47,1.55-1.48
	c5.11-0.03,10.24-0.24,15.34,0.05c5.21,0.3,10.22,5.16,11.6,10.73c0.5,2.02,0.7,4.08,0.68,6.17c-0.04,4.31-0.04,8.63,0.01,12.94
	c0.03,2.42,0.27,2.64,2.86,2.66c3.99,0.04,7.99-0.01,11.99,0.04c1.93,0.03,2.3,0.4,2.38,2.18c0.12,2.4,0.03,4.79-0.46,7.15
	c-1.24,5.89-5.29,9.76-11.24,11.03c-1.69,0.36-3.86-0.35-5,1.01c-1.25,1.5-0.53,3.69-0.53,5.58c-0.04,18.05-0.02,36.1-0.02,54.15
	c0,1.12-0.05,2.24,0.02,3.35c0.23,3.97,2.22,6.19,6.2,6.59c2.69,0.27,5.43,0.15,8.14,0.23c2.56,0.07,2.88,0.31,2.89,2.66
	c0.04,5.75,0.03,11.5-0.01,17.25c-0.01,1.59-0.35,1.93-1.93,2.16c-5.87,0.89-11.79,0.76-17.69,0.56c-3.67-0.12-7.33-0.48-10.98-0.82
	c-3.05-0.28-6-1.03-8.58-2.75c-3.65-2.44-5.72-5.96-6.54-10.21c-0.54-2.82-0.82-5.67-0.81-8.56
	C1410.71,107.56,1410.69,87.92,1410.69,68.27z"/>
<path class="st1" d="M1582.17,76.87c0-22.86,0-45.72,0-68.58c0-5.73-0.41-5.27,5.05-5.28c3.36-0.01,6.72-0.05,10.08,0.01
	c7.13,0.14,12.74,5.21,13.65,12.32c0.16,1.26,0.16,2.55,0.16,3.83c0.01,42.2,0.01,84.41,0.01,126.61c0,0.8,0.02,1.6-0.02,2.4
	c-0.09,1.63-0.47,2.16-1.9,2.16c-8.32,0.04-16.63,0.04-24.95,0.01c-1.52-0.01-1.98-0.52-2.04-2.02c-0.06-1.28-0.03-2.56-0.03-3.84
	C1582.17,121.95,1582.17,99.41,1582.17,76.87z"/>
<path class="st0" d="M494.38,65.23c-2.63,0.68-5.35,0.3-8.04,0.31c-2.72,0.01-5.42,0.18-8.1,0.66c-8.6,1.53-13.92,6.54-16.17,14.95
	c-1.18,4.38-1.12,8.86-1.14,13.31c-0.06,16.76-0.03,33.53-0.03,50.3c0,1.28,0,2.55-0.03,3.83c-0.03,1.18-0.75,1.67-1.84,1.73
	c-0.48,0.03-0.96,0.02-1.44,0.02c-7.51,0-15.02,0.02-22.52-0.01c-3.51-0.01-3.51-0.06-3.57-3.37c-0.01-0.48,0-0.96,0-1.44
	c0-18.04-0.05-36.08,0.02-54.13c0.03-7.85,1.18-15.56,3.63-23.07c4.63-14.18,14.07-23.7,28.01-28.71
	c9.58-3.44,19.58-4.38,29.72-3.98c1.4,0.06,1.78,0.5,1.79,2.21c0.02,8.78,0,17.56-0.02,26.34
	C494.66,64.51,494.49,64.82,494.38,65.23z"/>
<path class="st1" d="M1196.32,93.09c0-17.74,0.01-35.48,0-53.22c0-4.37-0.01-4.27,4.17-4.26c3.84,0.01,7.67,0,11.51,0
	c0.64,0,1.28-0.02,1.92,0.03c6.3,0.52,10.31,4.28,11.13,10.53c0.21,1.58,0.22,3.19,0.22,4.78c0.01,31.64,0.01,63.28,0.01,94.92
	c0,0.96,0.01,1.92-0.06,2.87c-0.07,0.89-0.57,1.45-1.51,1.53c-0.32,0.03-0.64,0.07-0.95,0.07c-7.99,0-15.99,0.03-23.98-0.01
	c-2.11-0.01-2.41-0.35-2.43-2.61c-0.04-5.11-0.02-10.23-0.02-15.34C1196.32,119.3,1196.32,106.19,1196.32,93.09z"/>
<path class="st1" d="M1365.25,93.08c0-17.74,0.01-35.48,0-53.22c0-4.37-0.01-4.25,4.18-4.24c3.84,0.01,7.67,0,11.51,0.01
	c0.8,0,1.6-0.02,2.4,0.07c5.88,0.67,9.65,4.2,10.57,10.03c0.27,1.73,0.28,3.5,0.28,5.26c0.02,31.64,0.01,63.28,0.01,94.92
	c0,0.96,0.01,1.92-0.06,2.87c-0.07,0.9-0.59,1.44-1.52,1.52c-0.32,0.03-0.64,0.07-0.95,0.07c-7.99,0-15.99,0.03-23.98-0.02
	c-2.1-0.01-2.35-0.35-2.42-2.63c-0.04-1.12-0.01-2.24-0.01-3.36C1365.25,127.28,1365.25,110.18,1365.25,93.08z"/>
<path class="st1" d="M1210.51,25.66c-3.84,0-7.67,0.04-11.51-0.01c-2.26-0.03-2.65-0.37-2.66-2.39c-0.04-6.07-0.03-12.14,0.02-18.21
	c0.01-1.56,0.45-2,2.01-2.01c5.11-0.05,10.23-0.2,15.34,0.02c6.78,0.28,10.89,4.38,11.39,11.2c0.23,3.18,0.12,6.38,0.12,9.58
	c0,1.13-0.65,1.77-1.78,1.78c-4.31,0.02-8.63,0.01-12.94,0.01C1210.51,25.64,1210.51,25.65,1210.51,25.66z"/>
<path class="st1" d="M1379.53,25.65c-4,0-7.99,0.04-11.98-0.02c-1.84-0.02-2.26-0.44-2.27-2.28c-0.04-6.07-0.03-12.14,0.01-18.21
	c0.01-1.65,0.42-2.09,1.92-2.1c5.27-0.04,10.56-0.22,15.82,0.05c6.34,0.33,10.39,4.31,10.96,10.59c0.3,3.33,0.18,6.7,0.16,10.05
	c-0.01,1.41-0.54,1.88-2.15,1.89C1387.84,25.68,1383.69,25.65,1379.53,25.65z"/>
</svg>
