<?xml version="1.0" encoding="utf-8"?>
<!-- Generator: Adobe Illustrator 23.0.2, SVG Export Plug-In . SVG Version: 6.00 Build 0)  -->
<svg version="1.1" id="Layer_1" xmlns="http://www.w3.org/2000/svg" xmlns:xlink="http://www.w3.org/1999/xlink" x="0px" y="0px"
	 viewBox="0 0 300.31 102.99" style="enable-background:new 0 0 300.31 102.99;" xml:space="preserve">
<style type="text/css">
	.st0{fill:#8CBE27;}
	.st1{fill:#3A2151;}
</style>
<path class="st0" d="M57.28,28.34c0,2.96-0.05,5.92,0.03,8.88c0.03,1.04-0.32,1.27-1.28,1.23c-1.72-0.08-3.44-0.07-5.16,0
	c-0.92,0.04-1.2-0.2-1.2-1.17c0.05-5.64,0.02-11.28,0.03-16.92c0-0.76-0.05-1.51-0.23-2.26c-0.13-0.55-0.34-1.07-0.67-1.53
	c-1.1-1.55-3.83-2.21-6.28-1.54c-1.91,0.53-2.9,1.78-3.1,3.93c-0.04,0.48-0.04,0.96-0.04,1.44c0,5.64-0.02,11.28,0.02,16.92
	c0.01,0.9-0.22,1.16-1.12,1.12c-1.84-0.07-3.68-0.05-5.52-0.01c-0.73,0.02-1.05-0.12-1.05-0.96c0.04-5.88-0.04-11.76,0.04-17.64
	c0.07-5.8,2.85-9.68,7.78-11.07c2.5-0.71,5.06-0.73,7.61-0.48c2.13,0.21,4.16,0.8,5.94,2.05c0.37,0.26,0.61,0.17,0.96-0.03
	c4.44-2.55,9.16-2.62,13.91-1.24c4.28,1.24,6.3,4.49,6.95,8.74c0.24,1.59,0.2,3.19,0.2,4.79c0,4.96-0.02,9.92,0.02,14.88
	c0.01,0.82-0.21,1.16-1.07,1.1c-1.19-0.09-2.4,0.09-3.59-0.11c-2.03-0.34-3-1.45-3-3.52c-0.01-4.84,0-9.68,0-14.52
	c0-4.54-3.4-6.78-7.66-5.08c-1.6,0.64-2.31,1.88-2.45,3.52c-0.02,0.28-0.06,0.56-0.06,0.84C57.28,22.58,57.29,25.46,57.28,28.34
	C57.28,28.34,57.28,28.34,57.28,28.34z"/>
<path class="st1" d="M144.81,85.42c2.69,0,5.25,0,7.8,0c0.31,0,0.52,0.08,0.65,0.39c1.02,2.55,3.27,2.75,5.49,2.66
	c3.59-0.15,5.37-2.08,5.61-5.85c0.07-1.15,0.01-2.31,0.01-3.47c-0.2-0.13-0.28,0.06-0.36,0.17c-3.57,5.11-12.13,4.55-15.73,1.31
	c-1.95-1.75-3.04-3.98-3.58-6.49c-0.96-4.44-1.1-8.88,0.19-13.27c1.22-4.18,4.01-6.83,8.21-7.91c3.47-0.89,6.96-0.88,10.43,0.05
	c4.69,1.24,7.23,4.42,8.06,9.09c0.2,1.14,0.27,2.3,0.27,3.46c-0.02,5.92-0.01,11.84-0.01,17.76c0,6.01-2.68,9.48-8.55,10.86
	c-3.82,0.9-7.68,1.14-11.45-0.3C148.01,92.39,145.9,89.41,144.81,85.42z M164.42,67.46c-0.05-1.74-0.19-3.24-0.67-4.7
	c-0.91-2.74-2.72-4.11-5.49-4.14c-2.87-0.03-4.87,1.26-5.74,3.98c-1.06,3.32-1.07,6.69,0.1,10c0.92,2.61,2.68,3.81,5.33,3.83
	c2.67,0.02,4.51-1.24,5.53-3.78C164.17,70.91,164.33,69.09,164.42,67.46z"/>
<path class="st1" d="M96.5,64.49c0-5.48,0-10.96,0-16.44c0-2.81,1.3-4.11,4.1-4.11c4.04,0,8.08-0.09,12.12,0.02
	c5.53,0.15,10.38,1.82,13.5,6.81c1.51,2.41,2.23,5.11,2.55,7.91c0.55,4.86,0.42,9.67-1.55,14.25c-2.39,5.57-6.65,8.63-12.69,9.17
	c-5.75,0.51-11.51,0.1-17.26,0.25c-0.81,0.02-0.78-0.38-0.77-0.95C96.5,75.77,96.5,70.13,96.5,64.49z M104.22,63.07
	c0,3.8,0.02,7.59-0.02,11.39c-0.01,0.73,0.18,0.96,0.93,0.94c2.2-0.06,4.4,0.04,6.59-0.07c4.79-0.25,7.6-2.42,8.65-6.81
	c0.94-3.91,0.89-7.86-0.22-11.73c-0.98-3.42-3.23-5.52-6.86-5.97c-2.63-0.33-5.27-0.05-7.9-0.17c-0.91-0.04-1.22,0.17-1.2,1.15
	C104.26,55.55,104.22,59.31,104.22,63.07z"/>
<path class="st0" d="M0.02,20.55c0-5.48,0-10.96,0-16.43c0-2.8,1.31-4.09,4.12-4.09c7.52,0,15.03,0.01,22.55-0.02
	c0.86,0,1.21,0.15,1.16,1.1c-0.09,1.51-0.07,3.04,0,4.56c0.04,0.86-0.25,1.07-1.08,1.07C20.84,6.69,14.92,6.74,9.01,6.68
	C7.91,6.67,7.67,7,7.71,8.02c0.08,1.92,0.07,3.84,0,5.76c-0.03,0.88,0.19,1.15,1.12,1.14c4.28-0.05,8.56,0,12.83-0.04
	c0.89-0.01,1.24,0.2,1.13,1.12c-0.09,0.75-0.01,1.52-0.12,2.27c-0.3,2.1-1.42,3.09-3.55,3.11c-3.44,0.03-6.88,0.03-10.32-0.01
	c-0.8-0.01-1.12,0.16-1.1,1.04c0.06,2.64,0.06,5.28,0,7.92c-0.02,0.88,0.31,1.06,1.11,1.06c5.88-0.03,11.75,0.01,17.63-0.04
	c1.09-0.01,1.46,0.27,1.39,1.39c-0.1,1.55-0.07,3.12-0.01,4.68c0.03,0.84-0.22,1.08-1.07,1.08c-8.6-0.03-17.19-0.03-25.79,0
	C0.18,38.48,0,38.22,0,37.46C0.03,31.82,0.02,26.18,0.02,20.55z"/>
<path class="st0" d="M86.7,34.79c0,4.11,0.01,7.95,0,11.78c0,2.46-0.92,3.46-3.39,3.72c-4.09,0.43-4.09,0.43-4.09-3.61
	c0-8.35,0-16.71,0-25.06c0-1.77,0.29-3.5,0.8-5.19c1.23-4.04,3.92-6.62,7.99-7.66c3.34-0.86,6.73-0.88,10.08-0.03
	c3.74,0.94,6.48,3.19,7.73,6.85c1.97,5.8,1.86,11.65-0.48,17.33c-2.94,7.13-12.94,7.89-16.98,3.73
	C87.84,36.11,87.36,35.53,86.7,34.79z M86.79,22.22c-0.09,2.45,0.08,4.86,1.18,7.12c1.02,2.09,2.78,3.04,5.03,3.07
	c2.3,0.03,4.21-0.88,5.15-3.04c1.66-3.83,1.73-7.78,0.08-11.63c-1.06-2.49-3.23-3.25-5.81-3.11c-2.37,0.13-3.94,1.33-4.83,3.5
	C87.05,19.43,86.86,20.81,86.79,22.22z"/>
<path class="st1" d="M270.65,73.18c-1.17,5.84-5.35,9.45-11.34,9.85c-1.84,0.12-3.66,0-5.48-0.42c-4.43-1.02-7.39-3.7-8.73-8.01
	c-1.42-4.57-1.47-9.23-0.21-13.84c1.45-5.28,5.45-8.28,11.21-8.64c1.88-0.12,3.75-0.08,5.6,0.33c5.25,1.16,7.96,4.67,9.01,9.71
	c0.43,2.04,0.51,4.12,0.52,6.2c0,0.84-0.25,1.08-1.09,1.08c-5.68-0.04-11.36,0.01-17.03-0.04c-1.02-0.01-1.31,0.24-1.13,1.27
	c0.39,2.3,1.1,4.44,3.47,5.34c2.44,0.93,4.77,0.43,6.66-1.38c1.17-1.12,2.41-1.56,3.99-1.47C267.6,73.25,269.12,73.18,270.65,73.18z
	 M257.61,64.1c1.6,0,3.2-0.01,4.79,0.01c0.48,0.01,0.75-0.06,0.65-0.65c-0.53-3.01-2.12-5.26-5.64-5.16
	c-2.84,0.08-5.21,2.42-5.38,5.29c-0.04,0.61,0.32,0.51,0.67,0.51C254.34,64.1,255.98,64.1,257.61,64.1z"/>
<path class="st0" d="M147.8,25.5c-2.88,0-5.76,0.02-8.64-0.01c-0.76-0.01-1.08,0.16-0.96,1.01c0.33,2.35,0.98,4.54,3.38,5.54
	c2.38,0.99,4.73,0.58,6.58-1.18c1.39-1.32,2.87-1.74,4.67-1.6c0.99,0.07,2.01,0.09,3-0.01c1.14-0.11,1.08,0.39,0.82,1.21
	c-1.7,5.28-5.45,8.26-11,8.65c-1.84,0.13-3.66,0.02-5.48-0.39c-4.85-1.1-7.83-4.14-9.07-8.87c-1.05-3.96-1.08-7.99-0.22-11.99
	c1.25-5.83,5.32-9.24,11.4-9.64c1.92-0.13,3.83-0.09,5.72,0.33c5.19,1.16,7.89,4.65,8.96,9.64c0.44,2.08,0.54,4.19,0.52,6.32
	c-0.01,0.76-0.23,1.03-1.03,1.02C153.56,25.47,150.68,25.5,147.8,25.5z M143.78,20.18c1.59,0,3.19-0.03,4.78,0.01
	c0.68,0.02,0.8-0.23,0.71-0.84c-0.49-3.4-2.78-5.25-6.14-4.94c-2.52,0.24-4.85,2.8-4.86,5.29c0,0.63,0.41,0.46,0.72,0.47
	C140.59,20.19,142.19,20.18,143.78,20.18z"/>
<path class="st1" d="M277.63,72.61c0.44,0,0.88,0.03,1.32,0c1.45-0.1,2.76-0.23,3.02,1.85c0.14,1.09,1.24,1.73,2.3,2.08
	c1.98,0.66,4,0.69,6.03,0.21c0.23-0.05,0.45-0.16,0.67-0.26c0.86-0.41,1.38-1.04,1.44-2.03c0.06-0.96-0.54-1.48-1.24-1.88
	c-2.01-1.15-4.25-1.56-6.49-1.98c-2.01-0.38-3.95-0.94-5.77-1.9c-6.2-3.25-4.99-11.37-0.93-14.18c1.93-1.34,4.06-2.04,6.35-2.29
	c3.09-0.33,6.14-0.17,9.07,1.04c3.45,1.43,5.33,4.05,5.87,7.7c0.09,0.63,0.09,1.05-0.79,1c-1.4-0.08-2.8,0.01-4.2-0.03
	c-1.41-0.04-2.57-0.53-3.15-1.96c-0.2-0.49-0.55-0.89-1.03-1.13c-2.21-1.11-4.5-1.1-6.71-0.16c-1.46,0.62-1.49,2.28-0.16,3.29
	c1.54,1.18,3.41,1.49,5.25,1.87c2.15,0.44,4.26,1.03,6.32,1.79c5.83,2.13,6.25,7.08,4.82,11.19c-0.9,2.59-2.87,4.2-5.4,5.07
	c-4.47,1.55-9.03,1.66-13.56,0.4c-4.21-1.17-6.8-4.65-6.86-8.79c-0.01-0.65,0.11-0.94,0.83-0.9
	C275.62,72.65,276.63,72.61,277.63,72.61z"/>
<path class="st0" d="M163.98,28.67c0.4,0,0.8,0.03,1.2-0.01c1.48-0.14,2.71-0.16,3.04,1.87c0.21,1.29,1.51,1.9,2.76,2.23
	c1.81,0.48,3.63,0.51,5.46,0.08c0.31-0.07,0.6-0.21,0.88-0.36c1.72-0.9,1.82-2.77,0.17-3.78c-2.02-1.24-4.32-1.6-6.59-2.04
	c-2.01-0.39-3.95-0.95-5.77-1.91c-6.21-3.29-4.87-11.3-1.07-14.04c1.94-1.4,4.1-2.14,6.43-2.4c3.3-0.37,6.55-0.19,9.62,1.24
	c3.22,1.49,4.89,4.09,5.41,7.53c0.11,0.74-0.1,0.99-0.87,0.95c-1.4-0.06-2.8,0.02-4.2-0.03c-1.37-0.04-2.49-0.54-3.06-1.91
	c-0.26-0.62-0.71-1.08-1.31-1.34c-2.08-0.89-4.22-0.92-6.3-0.08c-1.61,0.65-1.69,2.35-0.25,3.42c1.53,1.13,3.35,1.45,5.15,1.82
	c2.19,0.45,4.36,0.99,6.43,1.84c5.12,2.1,6.91,6.89,4.45,11.88c-1.05,2.12-2.77,3.51-4.95,4.28c-4.54,1.6-9.18,1.73-13.79,0.42
	c-4.16-1.18-6.72-4.69-6.77-8.75c-0.01-0.75,0.21-0.98,0.94-0.94C161.98,28.71,162.98,28.68,163.98,28.67z"/>
<path class="st0" d="M220.8,28.67c0.4,0,0.8,0.02,1.2,0c1.5-0.11,2.87-0.21,3.12,1.92c0.12,0.99,1.13,1.6,2.11,1.96
	c2.05,0.74,4.15,0.8,6.25,0.24c1.04-0.28,1.88-0.85,2.03-2.09c0.15-1.26-0.7-1.79-1.6-2.26c-2.27-1.18-4.79-1.48-7.24-2.01
	c-1.69-0.36-3.3-0.93-4.82-1.76c-6.04-3.33-4.66-11.21-0.96-13.92c1.93-1.41,4.08-2.16,6.42-2.43c3.18-0.37,6.31-0.21,9.3,1.05
	c3.4,1.43,5.23,4.05,5.79,7.64c0.12,0.78-0.1,1.06-0.92,1.02c-1.32-0.07-2.64,0-3.96-0.02c-1.46-0.02-2.66-0.49-3.26-1.96
	c-0.24-0.58-0.67-1.01-1.24-1.25c-2.12-0.93-4.3-0.95-6.4-0.09c-1.54,0.63-1.62,2.32-0.25,3.36c1.55,1.17,3.42,1.48,5.26,1.86
	c2.47,0.51,4.91,1.1,7.2,2.19c5.07,2.42,6.27,9.22,2.39,13.35c-1.75,1.87-3.97,2.77-6.41,3.23c-3.66,0.69-7.32,0.75-10.92-0.29
	c-4.22-1.22-6.85-4.62-6.95-8.74c-0.02-0.82,0.23-1.04,1-1C218.87,28.71,219.84,28.67,220.8,28.67z"/>
<path class="st1" d="M228.02,65.97c0,2.08,0.12,4.16-0.02,6.23c-0.31,4.49-2.45,7.82-6.74,9.45c-4.05,1.54-8.22,2.03-12.43,0.67
	c-3.67-1.18-5.82-4.17-5.97-7.98c-0.17-4.36,1.47-7.2,5.16-8.88c2.7-1.23,5.62-1.45,8.5-1.83c1.04-0.14,2.04-0.39,2.94-0.94
	c1.6-0.97,1.62-2.93-0.06-3.71c-2.23-1.04-4.57-0.97-6.87-0.09c-0.18,0.07-0.41,0.18-0.48,0.34c-0.63,1.47-1.91,1.13-3.06,1.14
	c-1.44,0.01-2.88-0.03-4.32,0.01c-0.73,0.02-0.97-0.09-0.78-0.92c0.95-4.06,3.62-6.3,7.57-7.04c3.78-0.7,7.56-0.58,11.24,0.65
	c3.58,1.19,5.34,3.71,5.34,7.49c0,1.8,0,3.6,0,5.4C228.05,65.97,228.03,65.97,228.02,65.97z M220.8,67.48
	c-2.3,0.88-4.53,1.47-6.79,1.95c-0.98,0.2-1.89,0.63-2.63,1.34c-1.81,1.72-1.27,4.96,0.95,5.81c3.42,1.3,7.53-0.97,8.27-4.55
	C220.89,70.55,220.8,69.08,220.8,67.48z"/>
<path class="st0" d="M212.79,22.2c0,2.04,0.11,4.09-0.02,6.12c-0.31,4.55-2.49,7.88-6.83,9.53c-3.74,1.42-7.61,1.85-11.53,0.88
	c-4.06-1.01-6.54-4.03-6.79-8.11c-0.27-4.53,1.64-7.62,5.72-9.24c2.56-1.01,5.27-1.24,7.96-1.6c1.04-0.14,2.05-0.39,2.94-0.94
	c1.59-0.98,1.58-2.94-0.1-3.71c-2.2-1-4.5-0.94-6.77-0.11c-0.22,0.08-0.49,0.22-0.58,0.41c-0.63,1.36-1.82,1.14-2.96,1.13
	c-1.4-0.02-2.8-0.04-4.2,0.01c-0.88,0.03-1.19-0.09-0.94-1.11c0.9-3.58,3.17-5.8,6.66-6.66c4.08-1,8.18-0.86,12.18,0.46
	c3.52,1.16,5.27,3.71,5.27,7.43c0,1.84,0,3.68,0,5.52C212.81,22.2,212.8,22.2,212.79,22.2z M205.56,23.67
	c-1.24,0.4-2.32,0.79-3.43,1.1c-1.15,0.32-2.33,0.52-3.48,0.83c-0.97,0.26-1.88,0.67-2.6,1.4c-1.7,1.74-1.13,4.89,1.05,5.71
	c3.11,1.19,7.03-0.69,8.07-3.86C205.71,27.18,205.57,25.47,205.56,23.67z"/>
<path class="st1" d="M188.18,61.2c0-5.4,0.03-10.79-0.02-16.19c-0.01-0.92,0.25-1.17,1.13-1.09c0.87,0.08,1.76,0.01,2.64,0.02
	c2.12,0.02,3.69,1.55,3.74,3.68c0.03,1.36,0.04,2.72-0.01,4.08c-0.02,0.66,0.14,0.93,0.85,0.89c1-0.06,2,0.01,3-0.02
	c0.5-0.02,0.67,0.12,0.7,0.66c0.19,2.95-0.89,4.38-3.77,4.72c-0.64,0.08-0.78,0.29-0.78,0.88c0.02,5.04,0,10.07,0.02,15.11
	c0.01,1.75,0.63,2.34,2.4,2.4c2.11,0.07,2.11,0.07,2.11,2.22c0,0.92-0.02,1.84,0.01,2.76c0.02,0.51-0.05,0.77-0.68,0.81
	c-2.4,0.15-4.8,0.15-7.18-0.11c-2.82-0.32-4.14-1.89-4.15-4.75C188.17,71.91,188.18,66.55,188.18,61.2z"/>
<path class="st1" d="M232.58,63.02c0-6,0.02-11.99-0.02-17.99c-0.01-0.9,0.21-1.19,1.11-1.11c0.91,0.09,1.84,0.01,2.76,0.02
	c2.1,0.02,3.63,1.51,3.63,3.63c0.01,11.28,0,22.55,0.03,33.83c0,0.83-0.27,0.98-1.02,0.96c-1.84-0.05-3.68-0.06-5.52,0
	c-0.79,0.03-0.99-0.2-0.99-0.99C232.59,75.25,232.58,69.14,232.58,63.02z"/>
<path class="st0" d="M110.69,29.24c0.16-2.97-0.3-6.54,0.41-10.07c1.18-5.86,5-9.44,10.97-10.27c1.43-0.2,2.86-0.25,4.3-0.26
	c0.63,0,0.83,0.19,0.82,0.82c-0.03,2.04-0.05,4.08,0.01,6.11c0.02,0.8-0.34,0.93-1.01,0.91c-1.2-0.03-2.4-0.08-3.58,0.2
	c-2.7,0.63-4.16,2.51-4.22,5.76c-0.09,4.87-0.08,9.75-0.03,14.63c0.01,1.08-0.24,1.44-1.36,1.37c-1.79-0.1-3.6-0.06-5.39-0.01
	c-0.75,0.02-0.95-0.22-0.94-0.95C110.72,34.93,110.69,32.37,110.69,29.24z"/>
<path class="st0" d="M79.19,67.16c-5.35-2.2-10.47-4.31-15.58-6.41c-0.15-0.06-0.29-0.13-0.44-0.19c-1.1-0.46-2.65-0.64-3.18-1.47
	c-0.57-0.89-0.13-2.4-0.23-3.62c-0.09-1.09,0.29-1.08,1.13-0.72c5.54,2.36,11.09,4.69,16.63,7.03c2.2,0.93,4.4,1.88,6.61,2.78
	c0.6,0.24,0.83,0.56,0.84,1.23c0.04,3.55,0.07,3.56-3.18,4.95c-6.93,2.97-13.85,5.93-20.78,8.89c-1.22,0.52-1.24,0.52-1.22-0.88
	c0.01-1.16-0.35-2.58,0.19-3.39c0.54-0.8,1.99-1,3.06-1.45c4.97-2.07,9.94-4.13,14.91-6.2C78.26,67.58,78.58,67.43,79.19,67.16z"/>
<path class="st1" d="M132.74,67.46c0-4.64,0.02-9.27-0.02-13.91c-0.01-0.79,0.21-1.03,0.99-0.98c1.12,0.07,2.24-0.01,3.36,0.02
	c1.97,0.05,3.14,1.18,3.14,3.15c0.02,8.59,0,17.19,0.03,25.78c0,0.72-0.26,0.84-0.9,0.83c-1.88-0.03-3.76-0.05-5.64,0.01
	c-0.8,0.03-0.99-0.22-0.98-0.99C132.75,76.73,132.74,72.09,132.74,67.46z"/>
<path class="st1" d="M176.42,67.33c0-4.6,0.02-9.19-0.02-13.79c-0.01-0.79,0.21-1.03,0.99-0.98c1.12,0.07,2.24-0.01,3.36,0.02
	c1.97,0.05,3.14,1.18,3.14,3.15c0.02,8.59,0,17.19,0.03,25.78c0,0.72-0.27,0.84-0.9,0.83c-1.88-0.03-3.76-0.05-5.64,0.01
	c-0.8,0.03-0.99-0.22-0.98-0.99C176.43,76.69,176.42,72.01,176.42,67.33z"/>
<path class="st1" d="M291.16,102.98c-1,0.04-2.02-0.06-3.01-0.45c-1.84-0.73-2.91-2.29-2.97-4.24c-0.02-0.53,0.19-0.61,0.61-0.59
	c0.48,0.01,0.96,0.02,1.44,0c0.84-0.04,1.55-0.12,1.76,1.1c0.24,1.46,3.79,1.31,4.29,0.45c0.43-0.74,0.23-1.32-0.6-1.58
	c-1.03-0.32-2.06-0.61-3.1-0.89c-0.7-0.19-1.37-0.42-2-0.77c-1.49-0.83-2.32-2.06-2.16-3.81c0.16-1.81,0.99-3.2,2.77-3.83
	c1.78-0.63,3.61-0.65,5.41-0.04c1.76,0.59,2.87,2.14,2.93,3.98c0.01,0.26,0.11,0.55-0.24,0.72c-0.73,0.34-2.75-0.08-3.19-0.79
	c-0.7-1.14-1.74-1.31-2.91-1.14c-0.56,0.08-1.1,0.29-1.22,0.97c-0.12,0.71,0.38,1.02,0.89,1.25c0.54,0.24,1.13,0.38,1.7,0.55
	c0.96,0.28,1.92,0.53,2.87,0.82c1.62,0.49,2.59,1.55,2.69,3.27c0.1,1.85-0.48,3.38-2.2,4.31
	C293.76,102.88,292.5,103.04,291.16,102.98z"/>
<path class="st1" d="M257.02,102.97c-1.25,0.07-2.47-0.1-3.6-0.69c-1.57-0.83-2.24-2.2-2.36-3.9c-0.01-0.16-0.04-0.43,0.02-0.46
	c0.98-0.44,2.02-0.11,3.02-0.21c0.44-0.05,0.46,0.24,0.55,0.58c0.41,1.54,3.24,2.24,4.35,1.09c0.57-0.59,0.39-1.38-0.45-1.69
	c-1.01-0.36-2.06-0.61-3.09-0.92c-0.57-0.17-1.15-0.34-1.69-0.59c-1.88-0.88-2.62-2.16-2.47-4.2c0.13-1.78,1.26-3.19,3.06-3.73
	c1.73-0.51,3.47-0.51,5.18,0.1c1.68,0.6,2.81,2.21,2.82,3.94c0,0.27,0.1,0.55-0.25,0.72c-0.74,0.35-2.7-0.08-3.18-0.81
	c-0.76-1.17-1.82-1.31-3.04-1.09c-0.54,0.1-0.98,0.36-1.08,0.97c-0.11,0.65,0.3,1,0.81,1.17c1.55,0.51,3.13,0.93,4.67,1.45
	c2.05,0.69,2.9,2.1,2.64,4.23c-0.3,2.38-1.93,3.82-4.6,4.03C257.9,103,257.46,102.97,257.02,102.97z"/>
<path class="st1" d="M280.85,102.78c-1.18,0-2.25-0.03-3.32,0.01c-0.63,0.02-0.66-0.43-0.8-0.83c-0.66-1.97-0.66-1.97-2.74-1.97
	c-0.16,0-0.32,0-0.48,0c-2.13,0-2.16-0.01-2.82,1.98c-0.21,0.64-0.52,0.88-1.19,0.82c-0.75-0.06-1.52-0.04-2.27-0.01
	c-0.6,0.02-0.66-0.21-0.48-0.72c1.54-4.27,3.06-8.54,4.59-12.81c0.24-0.67,0.75-1.01,1.43-1.11c2.47-0.36,2.77-0.18,3.6,2.15
	C277.86,94.41,279.33,98.53,280.85,102.78z M273.74,92.86c-0.5,0.74-0.61,1.53-0.85,2.27c-0.59,1.81-0.58,1.79,1.31,1.75
	c0.64-0.01,0.87-0.12,0.62-0.8C274.43,95.05,274.11,93.99,273.74,92.86z"/>
<path class="st1" d="M136.34,49.74c-1.15,0-2.69,0.45-3.35-0.12c-0.76-0.66-0.22-2.24-0.24-3.41c-0.04-2.27-0.01-2.27,2.28-2.27
	c0.68,0,1.36-0.01,2.03,0c1.99,0.05,3.1,1.16,3.15,3.13c0.08,2.75,0.08,2.75-2.68,2.75c-0.4,0-0.8,0-1.2,0
	C136.34,49.8,136.34,49.77,136.34,49.74z"/>
<path class="st1" d="M180.19,49.83c-1,0-2-0.04-2.99,0.01c-0.65,0.03-0.81-0.22-0.79-0.83c0.04-1.43,0.05-2.87,0-4.31
	c-0.02-0.67,0.23-0.8,0.83-0.78c1.19,0.04,2.39-0.01,3.59,0.02c1.92,0.05,3.02,1.17,3.08,3.08c0.09,2.8,0.09,2.8-2.75,2.8
	C180.82,49.83,180.5,49.83,180.19,49.83z"/>
<path class="st1" d="M264.71,102.78c-0.98-0.02-1.87,0.29-1.73-1.16c0.16-1.57,0.24-1.66,1.96-1.79c1.47-0.11,1.02,0.83,1.13,1.58
	C266.28,102.75,265.63,103,264.71,102.78z"/>
<path class="st1" d="M283.18,102.81c-1.06-0.1-2.03,0.36-1.92-1.12c0.13-1.59,0.27-1.71,1.89-1.87c1.47-0.14,1.13,0.75,1.25,1.58
	C284.58,102.74,283.97,103,283.18,102.81z"/>
</svg>
